<?xml version="1.0" encoding="UTF-8"?>
<svg version="1.1" xmlns="http://www.w3.org/2000/svg" width="700" height="655">
<path d="M0 0 C1.65 0 3.3 0 5 0 C5.48178711 0.97372559 5.96357422 1.94745117 6.45996094 2.95068359 C11.24447554 12.58888469 16.18396419 22.13217216 21.25 31.625 C21.99913794 33.03204617 22.74824223 34.43911025 23.49731445 35.84619141 C28.62264295 45.46388183 33.81458735 55.04377037 39.05078125 64.6015625 C44.15936109 73.93417945 49.18010047 83.3145397 54.21777344 92.68554688 C57.14266899 98.12505126 60.07148604 103.5624431 63 109 C66.51273987 115.52288848 70.02499177 122.0460377 73.53515625 128.5703125 C79.17652389 139.05427005 84.82577409 149.53378435 90.5 160 C96.76740991 171.56035464 103.00348244 183.13744156 109.23388672 194.71777344 C112.73603418 201.22632617 116.24075293 207.7334948 119.74536133 214.24072266 C122.68882188 219.70638539 125.63090505 225.17278132 128.5703125 230.640625 C133.99805915 240.73422486 139.43748303 250.82057005 144.9375 260.875 C150.43417586 270.92585404 155.84593773 281.021543 161.2489624 291.1229248 C161.72320648 292.00953796 161.72320648 292.00953796 162.20703125 292.9140625 C162.5233551 293.50546021 162.83967896 294.09685791 163.16558838 294.70617676 C168.17571415 304.06999316 173.21895715 313.41601024 178.25732422 322.76464844 C180.02863801 326.05316768 181.79781145 329.34283025 183.56640625 332.6328125 C188.99522731 342.7291409 194.4360857 352.81801564 199.9375 362.875 C205.43304649 372.92378896 210.84359527 383.01745904 216.24580383 393.11660767 C216.56171982 393.70718964 216.8776358 394.29777161 217.203125 394.90625 C217.5192424 395.4972348 217.8353598 396.0882196 218.16105652 396.69711304 C226.42735004 412.14679224 234.75705143 427.56234627 243.1081543 442.96630859 C248.83797106 453.53869996 254.53638725 464.12794142 260.23388672 474.71777344 C263.15465568 480.14586548 266.07739837 485.57289455 269 491 C272.51271056 497.52290427 276.02499176 504.04603768 279.53515625 510.5703125 C285.70629704 522.03880424 291.88981383 533.50036516 298.09912109 544.94824219 C300.93364685 550.17657788 303.75992402 555.40918036 306.57421875 560.6484375 C307.17218262 561.76138184 307.77014648 562.87432617 308.38623047 564.02099609 C309.57493545 566.23439119 310.76277931 568.448249 311.94970703 570.66259766 C314.62190391 575.63583197 317.31644611 580.59117662 320.10546875 585.5 C320.57637939 586.33096191 321.04729004 587.16192383 321.5324707 588.01806641 C322.39959781 589.54038775 323.27394758 591.05862793 324.15698242 592.57177734 C326.15263483 596.07403906 327 597.87369429 327 602 C320.99305189 601.48421757 316.24429311 598.91472657 310.94140625 596.2578125 C309.96123032 595.77480682 308.98105438 595.29180115 307.97117615 594.79415894 C304.83125859 593.24511325 301.69674773 591.68548095 298.5625 590.125 C294.4817338 588.1042095 290.39897717 586.08745385 286.31640625 584.0703125 C284.78856506 583.31396767 284.78856506 583.31396767 283.2298584 582.54234314 C274.29948682 578.12819283 265.31810118 573.82542673 256.32495117 569.54101562 C249.52144713 566.29911573 242.74299776 563.00637538 235.96746826 559.70651245 C232.23960649 557.89107867 228.5104091 556.07839203 224.78125 554.265625 C224.03475189 553.90270859 223.28825378 553.53979218 222.51913452 553.1658783 C215.47725839 549.74359813 208.42725394 546.33834057 201.375 542.9375 C191.07702724 537.97125873 180.78625217 532.99045886 170.5 528 C160.17180433 522.98929862 149.8394148 517.98751507 139.5 513 C128.4586505 507.67388647 117.42586901 502.33033107 106.39648438 496.97949219 C95.58978295 491.7369854 84.77591817 486.50959003 73.95751953 481.29125977 C66.16542682 477.53144997 58.37822314 473.76170422 50.59472656 469.98413086 C47.80355398 468.6297003 45.01120129 467.27775134 42.21777344 465.92797852 C36.13939582 462.98934383 30.06634978 460.04285763 24.02493286 457.02879333 C22.12893466 456.08392752 20.23026764 455.14467048 18.33056641 454.20727539 C16.0017529 453.056207 13.67816699 451.89448015 11.36083984 450.72045898 C10.32910645 450.21329346 9.29737305 449.70612793 8.234375 449.18359375 C7.33944336 448.73556396 6.44451172 448.28753418 5.52246094 447.82592773 C1.58699178 446.53733964 -0.88557501 447.51266235 -4.58935547 449.13232422 C-5.50604004 449.6017041 -6.42272461 450.07108398 -7.3671875 450.5546875 C-8.42035156 451.08835937 -9.47351563 451.62203125 -10.55859375 452.171875 C-11.65300781 452.73390625 -12.74742187 453.2959375 -13.875 453.875 C-22.13976315 458.09574697 -30.44957474 462.19318834 -38.828125 466.18359375 C-50.14053575 471.57156083 -61.39658368 477.06962401 -72.64105225 482.5977478 C-78.2384398 485.3493257 -83.8378843 488.09670995 -89.4375 490.84375 C-90.53633514 491.38283493 -91.63517029 491.92191986 -92.76730347 492.4773407 C-101.45795257 496.73881811 -110.16109281 500.97381938 -118.875 505.1875 C-131.72567276 511.40219659 -144.55325729 517.66333979 -157.375 523.9375 C-170.74068005 530.47766279 -184.11152286 537.00662586 -197.5 543.5 C-210.84650568 549.97315882 -224.17580912 556.48104016 -237.5 563 C-254.74272933 571.4351023 -271.98972419 579.8610911 -289.26887512 588.22138977 C-293.5616335 590.29940673 -297.84655015 592.39281641 -302.12890625 594.4921875 C-304.23164762 595.51587812 -306.33450333 596.53933394 -308.4375 597.5625 C-309.36739746 598.02229248 -310.29729492 598.48208496 -311.25537109 598.95581055 C-312.51921631 599.56743042 -312.51921631 599.56743042 -313.80859375 600.19140625 C-314.52845459 600.54404541 -315.24831543 600.89668457 -315.98999023 601.26000977 C-318 602 -318 602 -322 602 C-321.40210976 598.10473414 -320.22267713 595.18625731 -318.33203125 591.73828125 C-317.77572021 590.71524902 -317.21940918 589.6922168 -316.64624023 588.63818359 C-316.04110596 587.54070801 -315.43597168 586.44323242 -314.8125 585.3125 C-313.85604836 583.5580417 -312.89960662 581.8035779 -311.94380188 580.04876709 C-310.95243438 578.23049816 -309.95831267 576.413755 -308.96386719 574.59716797 C-305.92499096 569.03934619 -302.93440834 563.4555228 -299.9375 557.875 C-294.93857208 548.58591104 -289.91972842 539.30775294 -284.89208984 530.03417969 C-279.16224259 519.46159791 -273.46369898 508.87221887 -267.76611328 498.28222656 C-264.84534432 492.85413451 -261.92257725 487.42711859 -259 482 C-257.83332363 479.83333856 -256.66665696 477.66667189 -255.5 475.5 C-211.16666667 393.16666667 -166.83333333 310.83333333 -122.5 228.5 C-121.92233887 227.42717773 -121.34467773 226.35435547 -120.74951172 225.24902344 C-119.58455033 223.08557015 -118.41951145 220.92215859 -117.25439453 218.75878906 C-114.31099563 213.29329969 -111.36900883 207.82705848 -108.4296875 202.359375 C-103.00194085 192.26577514 -97.56251697 182.17942995 -92.0625 172.125 C-86.56582414 162.07414596 -81.15406227 151.978457 -75.7510376 141.8770752 C-75.43487488 141.28599976 -75.11871216 140.69492432 -74.79296875 140.0859375 C-74.4766449 139.49453979 -74.16032104 138.90314209 -73.83441162 138.29382324 C-68.82119825 128.92423618 -63.77518749 119.5722661 -58.73388672 110.21777344 C-55.82129735 104.81254563 -52.9107577 99.40621432 -50 94 C-48.83334304 91.83332811 -47.66667637 89.66666144 -46.5 87.5 C-45.9225 86.4275 -45.345 85.355 -44.75 84.25 C-25.5 48.5 -25.5 48.5 -23.74682617 45.24438477 C-22.59042778 43.09660305 -21.4343361 40.94865616 -20.27856445 38.80053711 C-17.5385972 33.70892917 -14.79544657 28.61910934 -12.04147339 23.5350647 C-11.05619978 21.71583628 -10.07189635 19.89608635 -9.08789062 18.07617188 C-7.84504275 15.7782445 -6.60032694 13.48132618 -5.35351562 11.18554688 C-4.79728516 10.15623047 -4.24105469 9.12691406 -3.66796875 8.06640625 C-3.17578857 7.15834229 -2.6836084 6.25027832 -2.17651367 5.31469727 C-0.89804032 2.94071046 -0.89804032 2.94071046 0 0 Z " fill="#EC1B3B" transform="translate(347,27)"/>
<path d="M0 0 C1.02996094 -0.00128906 2.05992187 -0.00257813 3.12109375 -0.00390625 C4.74724609 0.00189453 4.74724609 0.00189453 6.40625 0.0078125 C7.49035156 0.00394531 8.57445312 0.00007813 9.69140625 -0.00390625 C10.72136719 -0.00261719 11.75132812 -0.00132812 12.8125 0 C14.24045898 0.00169189 14.24045898 0.00169189 15.69726562 0.00341797 C17.90625 0.1328125 17.90625 0.1328125 18.90625 1.1328125 C19.0054157 2.75538794 19.03704777 4.38221081 19.0390625 6.0078125 C19.04099609 7.48507812 19.04099609 7.48507812 19.04296875 8.9921875 C19.03910156 10.02859375 19.03523438 11.065 19.03125 12.1328125 C19.03705078 13.68742187 19.03705078 13.68742187 19.04296875 15.2734375 C19.04167969 16.25828125 19.04039062 17.243125 19.0390625 18.2578125 C19.03793457 19.16789062 19.03680664 20.07796875 19.03564453 21.015625 C18.90625 23.1328125 18.90625 23.1328125 17.90625 24.1328125 C16.21066274 24.23213403 14.51099253 24.26361257 12.8125 24.265625 C11.78253906 24.26691406 10.75257813 24.26820313 9.69140625 24.26953125 C8.06525391 24.26373047 8.06525391 24.26373047 6.40625 24.2578125 C5.32214844 24.26167969 4.23804688 24.26554687 3.12109375 24.26953125 C2.09113281 24.26824219 1.06117188 24.26695312 0 24.265625 C-0.95197266 24.26449707 -1.90394531 24.26336914 -2.88476562 24.26220703 C-5.09375 24.1328125 -5.09375 24.1328125 -6.09375 23.1328125 C-6.1929157 21.51023706 -6.22454777 19.88341419 -6.2265625 18.2578125 C-6.22785156 17.27296875 -6.22914063 16.288125 -6.23046875 15.2734375 C-6.22660156 14.23703125 -6.22273438 13.200625 -6.21875 12.1328125 C-6.22455078 10.57820313 -6.22455078 10.57820313 -6.23046875 8.9921875 C-6.22917969 8.00734375 -6.22789062 7.0225 -6.2265625 6.0078125 C-6.22543457 5.09773438 -6.22430664 4.18765625 -6.22314453 3.25 C-5.97156325 -0.86643946 -3.56423097 0.00422302 0 0 Z " fill="#FEF8F9" transform="translate(265.09375,376.8671875)"/>
<path d="M0 0 C1.02996094 -0.00128906 2.05992187 -0.00257813 3.12109375 -0.00390625 C4.74724609 0.00189453 4.74724609 0.00189453 6.40625 0.0078125 C7.49035156 0.00394531 8.57445312 0.00007813 9.69140625 -0.00390625 C10.72136719 -0.00261719 11.75132812 -0.00132812 12.8125 0 C14.24045898 0.00169189 14.24045898 0.00169189 15.69726562 0.00341797 C17.90625 0.1328125 17.90625 0.1328125 18.90625 1.1328125 C18.99325342 2.76754132 19.01326063 4.40595305 19.00390625 6.04296875 C19.00140869 6.9337915 18.99891113 7.82461426 18.99633789 8.74243164 C18.98723389 9.88188232 18.97812988 11.02133301 18.96875 12.1953125 C18.948125 15.8046875 18.9275 19.4140625 18.90625 23.1328125 C10.65625 23.1328125 2.40625 23.1328125 -6.09375 23.1328125 C-6.114375 19.5234375 -6.135 15.9140625 -6.15625 12.1953125 C-6.165354 11.05586182 -6.17445801 9.91641113 -6.18383789 8.74243164 C-6.18633545 7.85160889 -6.18883301 6.96078613 -6.19140625 6.04296875 C-6.19664307 5.12652588 -6.20187988 4.21008301 -6.20727539 3.26586914 C-5.98719426 -0.86928971 -3.57359654 0.00423412 0 0 Z " fill="#FEFCFC" transform="translate(421.09375,404.8671875)"/>
<path d="M0 0 C0.9583374 0.00523682 1.9166748 0.01047363 2.90405273 0.01586914 C3.83548096 0.0183667 4.76690918 0.02086426 5.7265625 0.0234375 C7.51404907 0.03709351 7.51404907 0.03709351 9.33764648 0.05102539 C13.11202148 0.07165039 16.88639648 0.09227539 20.77514648 0.11352539 C20.77514648 8.03352539 20.77514648 15.95352539 20.77514648 24.11352539 C13.18514648 24.11352539 5.59514648 24.11352539 -2.22485352 24.11352539 C-3.44343459 21.67636324 -3.35410927 20.08078482 -3.35766602 17.35961914 C-3.35895508 16.42311523 -3.36024414 15.48661133 -3.36157227 14.52172852 C-3.35770508 13.54139648 -3.35383789 12.56106445 -3.34985352 11.55102539 C-3.3537207 10.56682617 -3.35758789 9.58262695 -3.36157227 8.56860352 C-3.3602832 7.63338867 -3.35899414 6.69817383 -3.35766602 5.73461914 C-3.35653809 4.87280029 -3.35541016 4.01098145 -3.35424805 3.12304688 C-3.17006942 0.26271803 -2.86592804 0.14623686 0 0 Z " fill="#FEFDFD" transform="translate(341.224853515625,376.886474609375)"/>
<path d="M0 0 C0.98484375 -0.00128906 1.9696875 -0.00257813 2.984375 -0.00390625 C4.02078125 -0.00003906 5.0571875 0.00382812 6.125 0.0078125 C7.67960937 0.00201172 7.67960937 0.00201172 9.265625 -0.00390625 C10.25046875 -0.00261719 11.2353125 -0.00132812 12.25 0 C13.16007812 0.00112793 14.07015625 0.00225586 15.0078125 0.00341797 C17.125 0.1328125 17.125 0.1328125 18.125 1.1328125 C18.2241657 2.75538794 18.25579777 4.38221081 18.2578125 6.0078125 C18.25974609 7.48507812 18.25974609 7.48507812 18.26171875 8.9921875 C18.25785156 10.02859375 18.25398438 11.065 18.25 12.1328125 C18.25580078 13.68742187 18.25580078 13.68742187 18.26171875 15.2734375 C18.26042969 16.25828125 18.25914062 17.243125 18.2578125 18.2578125 C18.25668457 19.16789062 18.25555664 20.07796875 18.25439453 21.015625 C18.125 23.1328125 18.125 23.1328125 17.125 24.1328125 C15.58718409 24.23183357 14.04490556 24.26360817 12.50390625 24.265625 C11.10108398 24.26755859 11.10108398 24.26755859 9.66992188 24.26953125 C8.68572266 24.26566406 7.70152344 24.26179688 6.6875 24.2578125 C5.21700195 24.26361328 5.21700195 24.26361328 3.71679688 24.26953125 C2.78029297 24.26824219 1.84378906 24.26695312 0.87890625 24.265625 C-0.41551392 24.26393311 -0.41551392 24.26393311 -1.73608398 24.26220703 C-3.875 24.1328125 -3.875 24.1328125 -5.875 23.1328125 C-5.90387512 19.48699563 -5.92175585 15.84120787 -5.9375 12.1953125 C-5.94587891 11.15439453 -5.95425781 10.11347656 -5.96289062 9.04101562 C-5.96772461 7.55698242 -5.96772461 7.55698242 -5.97265625 6.04296875 C-5.97789307 5.12652588 -5.98312988 4.21008301 -5.98852539 3.26586914 C-5.77241379 -0.79470513 -3.52713025 0.00437144 0 0 Z " fill="#FEFCFC" transform="translate(420.875,321.8671875)"/>
<path d="M0 0 C1.49249268 0.01571045 1.49249268 0.01571045 3.01513672 0.03173828 C4.6296875 0.04140625 4.6296875 0.04140625 6.27685547 0.05126953 C7.40478516 0.06802734 8.53271484 0.08478516 9.69482422 0.10205078 C11.39832031 0.11558594 11.39832031 0.11558594 13.13623047 0.12939453 C15.94751759 0.15301879 18.75869683 0.18889068 21.56982422 0.22705078 C21.56982422 7.15705078 21.56982422 14.08705078 21.56982422 21.22705078 C17.6113117 21.28078625 13.65352167 21.32059689 9.69482422 21.35205078 C8.56689453 21.36880859 7.43896484 21.38556641 6.27685547 21.40283203 C4.66230469 21.4125 4.66230469 21.4125 3.01513672 21.42236328 C1.52264404 21.43807373 1.52264404 21.43807373 0 21.45410156 C-2.43017578 21.22705078 -2.43017578 21.22705078 -4.43017578 19.22705078 C-4.6287455 16.35363017 -4.70846524 13.5984309 -4.68017578 10.72705078 C-4.68791016 9.94201172 -4.69564453 9.15697266 -4.70361328 8.34814453 C-4.67647358 0.43692188 -4.67647358 0.43692188 0 0 Z " fill="#FEFDFD" transform="translate(263.43017578125,293.77294921875)"/>
<path d="M0 0 C1.07507813 -0.00128906 2.15015625 -0.00257813 3.2578125 -0.00390625 C4.38960938 -0.00003906 5.52140625 0.00382812 6.6875 0.0078125 C7.81929688 0.00394531 8.95109375 0.00007813 10.1171875 -0.00390625 C11.19226563 -0.00261719 12.26734375 -0.00132812 13.375 0 C14.86580078 0.00169189 14.86580078 0.00169189 16.38671875 0.00341797 C18.6875 0.1328125 18.6875 0.1328125 19.6875 1.1328125 C19.78610131 2.53629985 19.81828937 3.94461727 19.8203125 5.3515625 C19.82224609 6.62580078 19.82224609 6.62580078 19.82421875 7.92578125 C19.82035156 8.81910156 19.81648438 9.71242188 19.8125 10.6328125 C19.81830078 11.97279297 19.81830078 11.97279297 19.82421875 13.33984375 C19.82292969 14.18933594 19.82164062 15.03882813 19.8203125 15.9140625 C19.81918457 16.69845703 19.81805664 17.48285156 19.81689453 18.29101562 C19.6875 20.1328125 19.6875 20.1328125 18.6875 21.1328125 C14.88161856 21.38489972 11.06324544 21.31803594 7.25 21.3203125 C5.63641602 21.33868164 5.63641602 21.33868164 3.99023438 21.35742188 C2.96349609 21.35935547 1.93675781 21.36128906 0.87890625 21.36328125 C-0.54119751 21.36944458 -0.54119751 21.36944458 -1.98999023 21.37573242 C-4.3125 21.1328125 -4.3125 21.1328125 -6.3125 19.1328125 C-6.55541992 17.26928711 -6.55541992 17.26928711 -6.54296875 15.03515625 C-6.54103516 14.23400391 -6.53910156 13.43285156 -6.53710938 12.60742188 C-6.52486328 11.77017578 -6.51261719 10.93292969 -6.5 10.0703125 C-6.49935547 9.22919922 -6.49871094 8.38808594 -6.49804688 7.52148438 C-6.44355248 0.00731272 -6.44355248 0.00731272 0 0 Z " fill="#FEFEFE" transform="translate(306.3125,266.8671875)"/>
<path d="M0 0 C1.49249268 0.01571045 1.49249268 0.01571045 3.01513672 0.03173828 C4.6296875 0.04140625 4.6296875 0.04140625 6.27685547 0.05126953 C7.40478516 0.06802734 8.53271484 0.08478516 9.69482422 0.10205078 C11.39832031 0.11558594 11.39832031 0.11558594 13.13623047 0.12939453 C15.94763721 0.1530198 18.7586272 0.18596065 21.56982422 0.22705078 C21.59870568 3.53953265 21.61658221 6.85198245 21.63232422 10.16455078 C21.64070313 11.11007812 21.64908203 12.05560547 21.65771484 13.02978516 C21.66254883 14.3784668 21.66254883 14.3784668 21.66748047 15.75439453 C21.67533569 17.00337524 21.67533569 17.00337524 21.68334961 18.27758789 C21.56982422 20.22705078 21.56982422 20.22705078 20.56982422 21.22705078 C16.76394277 21.479138 12.94556966 21.41227422 9.13232422 21.41455078 C7.51874023 21.43291992 7.51874023 21.43291992 5.87255859 21.45166016 C4.84582031 21.45359375 3.81908203 21.45552734 2.76123047 21.45751953 C1.34112671 21.46368286 1.34112671 21.46368286 -0.10766602 21.4699707 C-2.43017578 21.22705078 -2.43017578 21.22705078 -4.43017578 19.22705078 C-4.6287455 16.35363017 -4.70846524 13.5984309 -4.68017578 10.72705078 C-4.68791016 9.94201172 -4.69564453 9.15697266 -4.70361328 8.34814453 C-4.67647358 0.43692188 -4.67647358 0.43692188 0 0 Z " fill="#FDF5F6" transform="translate(263.43017578125,403.77294921875)"/>
<path d="M0 0 C0.9583374 0.00523682 1.9166748 0.01047363 2.90405273 0.01586914 C4.45576172 0.02070313 4.45576172 0.02070313 6.03881836 0.02563477 C7.12743164 0.03401367 8.21604492 0.04239258 9.33764648 0.05102539 C10.97636719 0.05779297 10.97636719 0.05779297 12.64819336 0.06469727 C15.35723144 0.07652713 18.06616248 0.09300996 20.77514648 0.11352539 C21.92341498 2.41006239 21.89075823 3.69665706 21.87280273 6.24633789 C21.86958008 7.05200195 21.86635742 7.85766602 21.86303711 8.68774414 C21.8546582 9.52950195 21.8462793 10.37125977 21.83764648 11.23852539 C21.83313477 12.08801758 21.82862305 12.93750977 21.82397461 13.81274414 C21.81217523 15.91303448 21.79423955 18.01328869 21.77514648 20.11352539 C19.21791419 21.39214154 17.40777546 21.22689148 14.54858398 21.21118164 C13.51733398 21.20795898 12.48608398 21.20473633 11.42358398 21.20141602 C9.80323242 21.18884766 9.80323242 21.18884766 8.15014648 21.17602539 C6.51819336 21.16925781 6.51819336 21.16925781 4.85327148 21.16235352 C2.16050859 21.15054315 -0.5321454 21.13407318 -3.22485352 21.11352539 C-3.25373498 17.80104352 -3.27161151 14.48859372 -3.28735352 11.17602539 C-3.29573242 10.23049805 -3.30411133 9.2849707 -3.31274414 8.31079102 C-3.3159668 7.41166992 -3.31918945 6.51254883 -3.32250977 5.58618164 C-3.32774658 4.75352783 -3.3329834 3.92087402 -3.33837891 3.06298828 C-3.17402897 0.24076408 -2.82319809 0.14405652 0 0 Z " fill="#FEF9F9" transform="translate(262.224853515625,266.886474609375)"/>
<path d="M0 0 C1.02802734 -0.01224609 2.05605469 -0.02449219 3.11523438 -0.03710938 C4.58766602 -0.04000977 4.58766602 -0.04000977 6.08984375 -0.04296875 C6.99468506 -0.04707764 7.89952637 -0.05118652 8.83178711 -0.05541992 C11.0625 0.1875 11.0625 0.1875 13.0625 2.1875 C13.30541992 4.05102539 13.30541992 4.05102539 13.29296875 6.28515625 C13.29103516 7.08630859 13.28910156 7.88746094 13.28710938 8.71289062 C13.26874023 9.96875977 13.26874023 9.96875977 13.25 11.25 C13.24935547 12.09111328 13.24871094 12.93222656 13.24804688 13.79882812 C13.20273184 20.04726816 13.20273184 20.04726816 12.0625 21.1875 C8.42350825 21.43906269 4.77166327 21.37272226 1.125 21.375 C0.09697266 21.38724609 -0.93105469 21.39949219 -1.99023438 21.41210938 C-3.46266602 21.41500977 -3.46266602 21.41500977 -4.96484375 21.41796875 C-6.32210571 21.42413208 -6.32210571 21.42413208 -7.70678711 21.43041992 C-9.9375 21.1875 -9.9375 21.1875 -11.9375 19.1875 C-12.18041992 17.32397461 -12.18041992 17.32397461 -12.16796875 15.08984375 C-12.16603516 14.28869141 -12.16410156 13.48753906 -12.16210938 12.66210938 C-12.14986328 11.82486328 -12.13761719 10.98761719 -12.125 10.125 C-12.12435547 9.28388672 -12.12371094 8.44277344 -12.12304688 7.57617188 C-12.05372296 -1.98282511 -8.43073519 0.00526592 0 0 Z " fill="#FDF4F4" transform="translate(348.9375,348.8125)"/>
<path d="M0 0 C0.83724609 -0.01224609 1.67449219 -0.02449219 2.53710938 -0.03710938 C3.73883789 -0.04000977 3.73883789 -0.04000977 4.96484375 -0.04296875 C5.70210693 -0.04707764 6.43937012 -0.05118652 7.19897461 -0.05541992 C9.0625 0.1875 9.0625 0.1875 11.0625 2.1875 C11.30541992 4.41821289 11.30541992 4.41821289 11.29296875 7.16015625 C11.29103516 8.14177734 11.28910156 9.12339844 11.28710938 10.13476562 C11.26874023 11.67680664 11.26874023 11.67680664 11.25 13.25 C11.24935547 14.28189453 11.24871094 15.31378906 11.24804688 16.37695312 C11.20265997 24.04734003 11.20265997 24.04734003 10.0625 25.1875 C7.07231839 25.31417764 4.11555892 25.37270838 1.125 25.375 C0.28775391 25.38724609 -0.54949219 25.39949219 -1.41210938 25.41210938 C-2.61383789 25.41500977 -2.61383789 25.41500977 -3.83984375 25.41796875 C-4.57710693 25.42207764 -5.31437012 25.42618652 -6.07397461 25.43041992 C-7.9375 25.1875 -7.9375 25.1875 -9.9375 23.1875 C-10.18041992 20.95678711 -10.18041992 20.95678711 -10.16796875 18.21484375 C-10.16603516 17.23322266 -10.16410156 16.25160156 -10.16210938 15.24023438 C-10.14986328 14.21220703 -10.13761719 13.18417969 -10.125 12.125 C-10.12435547 11.09310547 -10.12371094 10.06121094 -10.12304688 8.99804688 C-10.06870614 -0.18553809 -9.12680633 0.00699372 0 0 Z " fill="#FEFEFE" transform="translate(387.9375,321.8125)"/>
<path d="M0 0 C3.97915159 -0.02886984 7.95827653 -0.04675406 11.9375 -0.0625 C13.07380859 -0.07087891 14.21011719 -0.07925781 15.38085938 -0.08789062 C16.46044922 -0.09111328 17.54003906 -0.09433594 18.65234375 -0.09765625 C20.15269165 -0.10551147 20.15269165 -0.10551147 21.68334961 -0.11352539 C24 0 24 0 25 1 C25.0983721 2.33043625 25.13078592 3.66593344 25.1328125 5 C25.13474609 6.2065625 25.13474609 6.2065625 25.13671875 7.4375 C25.13285156 8.283125 25.12898438 9.12875 25.125 10 C25.13080078 11.2684375 25.13080078 11.2684375 25.13671875 12.5625 C25.13542969 13.366875 25.13414062 14.17125 25.1328125 15 C25.13168457 15.7425 25.13055664 16.485 25.12939453 17.25 C25 19 25 19 24 20 C22.30441274 20.09932153 20.60474253 20.13080007 18.90625 20.1328125 C17.87628906 20.13410156 16.84632813 20.13539063 15.78515625 20.13671875 C14.15900391 20.13091797 14.15900391 20.13091797 12.5 20.125 C11.41589844 20.12886719 10.33179688 20.13273437 9.21484375 20.13671875 C8.18488281 20.13542969 7.15492188 20.13414062 6.09375 20.1328125 C5.14177734 20.13168457 4.18980469 20.13055664 3.20898438 20.12939453 C1 20 1 20 0 19 C-0.08651611 17.58429877 -0.10704904 16.164405 -0.09765625 14.74609375 C-0.09443359 13.89208984 -0.09121094 13.03808594 -0.08789062 12.15820312 C-0.07951172 11.26037109 -0.07113281 10.36253906 -0.0625 9.4375 C-0.05798828 8.53580078 -0.05347656 7.63410156 -0.04882812 6.70507812 C-0.03700225 4.46998686 -0.0205222 2.23502563 0 0 Z " fill="#FEFEFE" transform="translate(415,350)"/>
<path d="M0 0 C0.9583374 0.00523682 1.9166748 0.01047363 2.90405273 0.01586914 C4.45576172 0.02070313 4.45576172 0.02070313 6.03881836 0.02563477 C7.12743164 0.03401367 8.21604492 0.04239258 9.33764648 0.05102539 C10.97636719 0.05779297 10.97636719 0.05779297 12.64819336 0.06469727 C15.35723144 0.07652713 18.06616248 0.09300996 20.77514648 0.11352539 C22.42353592 3.41030427 21.91787386 7.05668583 21.90014648 10.67602539 C21.90594727 11.86615234 21.90594727 11.86615234 21.91186523 13.08032227 C21.90177715 18.98689472 21.90177715 18.98689472 20.77514648 20.11352539 C19.07955923 20.21284693 17.37988901 20.24432546 15.68139648 20.24633789 C14.65143555 20.24762695 13.62147461 20.24891602 12.56030273 20.25024414 C10.93415039 20.24444336 10.93415039 20.24444336 9.27514648 20.23852539 C8.19104492 20.24239258 7.10694336 20.24625977 5.98999023 20.25024414 C4.9600293 20.24895508 3.93006836 20.24766602 2.86889648 20.24633789 C1.91692383 20.24520996 0.96495117 20.24408203 -0.01586914 20.24291992 C-2.22485352 20.11352539 -2.22485352 20.11352539 -3.22485352 19.11352539 C-3.32322562 17.78308914 -3.35563944 16.44759195 -3.35766602 15.11352539 C-3.35895508 14.30915039 -3.36024414 13.50477539 -3.36157227 12.67602539 C-3.35770508 11.83040039 -3.35383789 10.98477539 -3.34985352 10.11352539 C-3.3537207 9.26790039 -3.35758789 8.42227539 -3.36157227 7.55102539 C-3.3602832 6.74665039 -3.35899414 5.94227539 -3.35766602 5.11352539 C-3.35653809 4.37102539 -3.35541016 3.62852539 -3.35424805 2.86352539 C-3.15582021 0.17988246 -2.67935443 0.13671676 0 0 Z " fill="#FEFDFD" transform="translate(262.224853515625,321.886474609375)"/>
<path d="M0 0 C7.26 0 14.52 0 22 0 C22 7.26 22 14.52 22 22 C14.74 22 7.48 22 0 22 C0 14.74 0 7.48 0 0 Z " fill="#FEFAFA" transform="translate(338,406)"/>
<path d="M0 0 C1.29442017 0.00616333 1.29442017 0.00616333 2.61499023 0.01245117 C4.01974609 0.01535156 4.01974609 0.01535156 5.45288086 0.01831055 C6.43321289 0.03055664 7.41354492 0.04280273 8.42358398 0.05541992 C9.4077832 0.05606445 10.39198242 0.05670898 11.40600586 0.05737305 C18.72090866 0.1027446 18.72090866 0.1027446 19.86108398 1.24291992 C19.94740273 2.58559405 19.96814872 3.93266314 19.95874023 5.27807617 C19.95624268 6.00647705 19.95374512 6.73487793 19.95117188 7.48535156 C19.94206787 8.41597412 19.93296387 9.34659668 19.92358398 10.30541992 C19.90295898 13.25479492 19.88233398 16.20416992 19.86108398 19.24291992 C12.27108398 19.24291992 4.68108398 19.24291992 -3.13891602 19.24291992 C-4.65603592 16.20868011 -4.32330858 13.06787198 -4.32641602 9.74291992 C-4.33866211 9.05327148 -4.3509082 8.36362305 -4.36352539 7.65307617 C-4.36880297 5.84814498 -4.26076059 4.0437415 -4.13891602 2.24291992 C-2.13891602 0.24291992 -2.13891602 0.24291992 0 0 Z " fill="#FEFDFD" transform="translate(342.138916015625,267.757080078125)"/>
<path d="M0 0 C0.87454834 0.00523682 1.74909668 0.01047363 2.65014648 0.01586914 C3.59438477 0.0190918 4.53862305 0.02231445 5.51147461 0.02563477 C6.50469727 0.03401367 7.49791992 0.04239258 8.52124023 0.05102539 C9.51833008 0.05553711 10.51541992 0.06004883 11.54272461 0.06469727 C14.01478872 0.07652532 16.48673541 0.0930069 18.95874023 0.11352539 C20.54570868 3.28746228 20.10188493 6.69526744 20.08374023 10.17602539 C20.08954102 11.29460937 20.08954102 11.29460937 20.09545898 12.43579102 C20.08537524 17.98689038 20.08537524 17.98689038 18.95874023 19.11352539 C17.49395518 19.21235876 16.02451065 19.24431828 14.55639648 19.24633789 C13.66629883 19.24762695 12.77620117 19.24891602 11.85913086 19.25024414 C10.92262695 19.24637695 9.98612305 19.24250977 9.02124023 19.23852539 C8.08860352 19.24239258 7.1559668 19.24625977 6.19506836 19.25024414 C5.30368164 19.24895508 4.41229492 19.24766602 3.49389648 19.24633789 C2.67284424 19.24520996 1.85179199 19.24408203 1.00585938 19.24291992 C-1.04125977 19.11352539 -1.04125977 19.11352539 -3.04125977 18.11352539 C-3.06810289 15.30096258 -3.08802164 12.48865298 -3.10375977 9.67602539 C-3.11213867 8.87358398 -3.12051758 8.07114258 -3.12915039 7.24438477 C-3.13777407 5.20057318 -3.09354126 3.15668637 -3.04125977 1.11352539 C-2.04125977 0.11352539 -2.04125977 0.11352539 0 0 Z " fill="#FEFEFE" transform="translate(341.041259765625,294.886474609375)"/>
<path d="M0 0 C3.40004761 -0.35038659 6.6143345 -0.53681667 10 0 C12.5625 2.9375 12.5625 2.9375 14 6 C14.33 6.33 14.66 6.66 15 7 C15.07258946 9.18639453 15.08373783 11.37500389 15.0625 13.5625 C15.05347656 14.76003906 15.04445313 15.95757812 15.03515625 17.19140625 C15.02355469 18.11824219 15.01195312 19.04507812 15 20 C11.84044583 21.57977708 8.46536183 21.18447084 5 21.1875 C4.26265625 21.19974609 3.5253125 21.21199219 2.765625 21.22460938 C0.84229942 21.22987395 -1.08054263 21.12203447 -3 21 C-5.69101234 18.30898766 -5.29887549 16.80924054 -5.3125 13.0625 C-5.32925781 12.00160156 -5.34601563 10.94070313 -5.36328125 9.84765625 C-4.94946583 6.60387732 -4.40210416 6.05143202 -2 4 C-0.82425289 1.90010348 -0.82425289 1.90010348 0 0 Z " fill="#FEBF26" transform="translate(269,349)"/>
<path d="M0 0 C8.91 0 17.82 0 27 0 C27 8.58 27 17.16 27 26 C26.34 26 25.68 26 25 26 C25.66 26.99 26.32 27.98 27 29 C27.22705078 31.4519043 27.22705078 31.4519043 27.1953125 34.32421875 C27.18886719 35.35224609 27.18242187 36.38027344 27.17578125 37.43945312 C27.15902344 38.51130859 27.14226562 39.58316406 27.125 40.6875 C27.11597656 41.77095703 27.10695313 42.85441406 27.09765625 43.97070312 C27.0740734 46.6473571 27.04116126 49.32356797 27 52 C26.01 52 25.02 52 24 52 C24 44.74 24 37.48 24 30 C16.74 30 9.48 30 2 30 C2 37.26 2 44.52 2 52 C1.34 52 0.68 52 0 52 C0 34.66666667 0 17.33333333 0 0 Z M2 2 C1.90097893 3.53781591 1.86920433 5.08009444 1.8671875 6.62109375 C1.86589844 7.55630859 1.86460937 8.49152344 1.86328125 9.45507812 C1.86714844 10.43927734 1.87101562 11.42347656 1.875 12.4375 C1.87113281 13.41783203 1.86726563 14.39816406 1.86328125 15.40820312 C1.86457031 16.34470703 1.86585938 17.28121094 1.8671875 18.24609375 C1.86831543 19.10904053 1.86944336 19.9719873 1.87060547 20.86108398 C1.86278731 23.05256423 1.86278731 23.05256423 3 25 C10.59 25 18.18 25 26 25 C26 17.08 26 9.16 26 1 C22.225625 0.979375 18.45125 0.95875 14.5625 0.9375 C12.77501343 0.92384399 12.77501343 0.92384399 10.95141602 0.90991211 C10.01998779 0.90741455 9.08855957 0.90491699 8.12890625 0.90234375 C7.17056885 0.89710693 6.21223145 0.89187012 5.22485352 0.88647461 C3.02714661 0.7494687 3.02714661 0.7494687 2 2 Z " fill="#F07A84" transform="translate(336,376)"/>
<path d="M0 0 C4.01892862 -0.64302858 7.50893075 -1.07537722 10.93359375 1.39453125 C15.06990422 6.26486324 15.59285003 10.51509168 15.30859375 16.77734375 C15 19 15 19 14 20 C11.17743509 20.10007008 8.3847681 20.13875598 5.5625 20.125 C4.77294922 20.12886719 3.98339844 20.13273437 3.16992188 20.13671875 C-2.74673867 20.12663067 -2.74673867 20.12663067 -5 19 C-5.8089913 11.8808766 -2.93279777 6.37883514 0 0 Z " fill="#F9A72D" transform="translate(269,240)"/>
<path d="M0 0 C3.98329367 1.61228553 7.65822713 4.12895426 9.625 8.0625 C10.615 8.3925 11.605 8.7225 12.625 9.0625 C13.11285997 16.50236448 13.11285997 16.50236448 10.9375 19 C5.54735178 21.47655459 -0.51321545 21.67461555 -6.375 21.0625 C-8.375 19.0625 -8.375 19.0625 -8.640625 17.109375 C-8.60037297 11.1923268 -8.2060532 6.52495086 -4.5625 1.625 C-2.375 0.0625 -2.375 0.0625 0 0 Z " fill="#F37E34" transform="translate(349.375,321.9375)"/>
<path d="M0 0 C2.81388646 0.70896749 4.05615017 1.29342215 6 3.50390625 C6.49729778 6.41240328 6.37539745 9.25180065 6.25 12.19140625 C6.23195313 12.98869141 6.21390625 13.78597656 6.1953125 14.60742188 C6.14822247 16.57343074 6.07647899 18.53882119 6 20.50390625 C3.70858714 20.55775146 1.41681812 20.59662712 -0.875 20.62890625 C-2.15117187 20.65210938 -3.42734375 20.6753125 -4.7421875 20.69921875 C-8 20.50390625 -8 20.50390625 -10 18.50390625 C-10.66482922 13.33988397 -11.05368039 7.45448608 -8.5 2.75390625 C-5.47225232 0.02893334 -3.94258221 -0.11550534 0 0 Z " fill="#FDBC27" transform="translate(430,376.49609375)"/>
<path d="M0 0 C3.22815141 0.51356954 4.80772413 1.58531368 6.80859375 4.17578125 C8.90559857 9.21381359 8.24513361 15.0971304 7.75 20.4375 C6.75 21.4375 6.75 21.4375 3.80859375 21.53515625 C2.61363281 21.52355469 1.41867187 21.51195312 0.1875 21.5 C-1.60880859 21.48646484 -1.60880859 21.48646484 -3.44140625 21.47265625 C-4.36824219 21.46105469 -5.29507812 21.44945312 -6.25 21.4375 C-8.30058812 17.33632376 -7.73033456 12.95492053 -6.390625 8.72265625 C-3.18157383 0.61863936 -3.18157383 0.61863936 0 0 Z " fill="#FDBC27" transform="translate(427.25,293.5625)"/>
<path d="M0 0 C1.07507813 -0.00128906 2.15015625 -0.00257813 3.2578125 -0.00390625 C4.38960938 -0.00003906 5.52140625 0.00382812 6.6875 0.0078125 C7.81929688 0.00394531 8.95109375 0.00007813 10.1171875 -0.00390625 C11.19226563 -0.00261719 12.26734375 -0.00132812 13.375 0 C14.86580078 0.00169189 14.86580078 0.00169189 16.38671875 0.00341797 C18.6875 0.1328125 18.6875 0.1328125 19.6875 1.1328125 C19.78610131 2.53629985 19.81828937 3.94461727 19.8203125 5.3515625 C19.82224609 6.62580078 19.82224609 6.62580078 19.82421875 7.92578125 C19.82035156 8.81910156 19.81648438 9.71242188 19.8125 10.6328125 C19.81830078 11.97279297 19.81830078 11.97279297 19.82421875 13.33984375 C19.82292969 14.18933594 19.82164062 15.03882813 19.8203125 15.9140625 C19.81918457 16.69845703 19.81805664 17.48285156 19.81689453 18.29101562 C19.6875 20.1328125 19.6875 20.1328125 18.6875 21.1328125 C14.88161856 21.38489972 11.06324544 21.31803594 7.25 21.3203125 C5.63641602 21.33868164 5.63641602 21.33868164 3.99023438 21.35742188 C2.96349609 21.35935547 1.93675781 21.36128906 0.87890625 21.36328125 C-0.54119751 21.36944458 -0.54119751 21.36944458 -1.98999023 21.37573242 C-4.3125 21.1328125 -4.3125 21.1328125 -6.3125 19.1328125 C-6.55541992 17.26928711 -6.55541992 17.26928711 -6.54296875 15.03515625 C-6.54103516 14.23400391 -6.53910156 13.43285156 -6.53710938 12.60742188 C-6.52486328 11.77017578 -6.51261719 10.93292969 -6.5 10.0703125 C-6.49935547 9.22919922 -6.49871094 8.38808594 -6.49804688 7.52148438 C-6.44355248 0.00731272 -6.44355248 0.00731272 0 0 Z M-3.3125 3.1328125 C-3.3125 8.0828125 -3.3125 13.0328125 -3.3125 18.1328125 C3.2875 18.1328125 9.8875 18.1328125 16.6875 18.1328125 C16.6875 13.1828125 16.6875 8.2328125 16.6875 3.1328125 C10.0875 3.1328125 3.4875 3.1328125 -3.3125 3.1328125 Z " fill="#F5B5B8" transform="translate(306.3125,266.8671875)"/>
<path d="M0 0 C1.12019531 -0.00128906 2.24039062 -0.00257813 3.39453125 -0.00390625 C4.57402344 -0.00003906 5.75351562 0.00382812 6.96875 0.0078125 C8.73798828 0.00201172 8.73798828 0.00201172 10.54296875 -0.00390625 C12.22326172 -0.00197266 12.22326172 -0.00197266 13.9375 0 C14.97326172 0.00112793 16.00902344 0.00225586 17.07617188 0.00341797 C19.46875 0.1328125 19.46875 0.1328125 20.46875 1.1328125 C20.55612645 2.98650861 20.57573153 4.84348791 20.56640625 6.69921875 C20.56318359 7.82392578 20.55996094 8.94863281 20.55664062 10.10742188 C20.54826172 11.29142578 20.53988281 12.47542969 20.53125 13.6953125 C20.52673828 14.88318359 20.52222656 16.07105469 20.51757812 17.29492188 C20.50574675 20.24093476 20.48926287 23.18684931 20.46875 26.1328125 C19.80875 26.4628125 19.14875 26.7928125 18.46875 27.1328125 C19.12875 27.4628125 19.78875 27.7928125 20.46875 28.1328125 C20.46875 35.0628125 20.46875 41.9928125 20.46875 49.1328125 C19.80875 48.8028125 19.14875 48.4728125 18.46875 48.1328125 C18.46875 42.1928125 18.46875 36.2528125 18.46875 30.1328125 C10.54875 29.8028125 2.62875 29.4728125 -5.53125 29.1328125 C-6.58384482 25.97502804 -6.66041606 23.72086371 -6.6640625 20.40625 C-6.66535156 19.2925 -6.66664063 18.17875 -6.66796875 17.03125 C-6.66410156 15.86851562 -6.66023438 14.70578125 -6.65625 13.5078125 C-6.66011719 12.33734375 -6.66398437 11.166875 -6.66796875 9.9609375 C-6.66667969 8.84976562 -6.66539062 7.73859375 -6.6640625 6.59375 C-6.66293457 5.57071777 -6.66180664 4.54768555 -6.66064453 3.49365234 C-6.41495128 -0.98909061 -3.91548463 0.00426391 0 0 Z M-5.53125 2.1328125 C-5.61825342 3.76754132 -5.63826063 5.40595305 -5.62890625 7.04296875 C-5.62568359 8.03232422 -5.62246094 9.02167969 -5.61914062 10.04101562 C-5.61076172 11.08193359 -5.60238281 12.12285156 -5.59375 13.1953125 C-5.58923828 14.24009766 -5.58472656 15.28488281 -5.58007812 16.36132812 C-5.56824913 18.9518791 -5.55176689 21.54231809 -5.53125 24.1328125 C-3.09408785 25.35139357 -1.49850943 25.26206825 1.22265625 25.265625 C2.15916016 25.26691406 3.09566406 25.26820313 4.06054688 25.26953125 C5.04087891 25.26566406 6.02121094 25.26179688 7.03125 25.2578125 C8.50754883 25.26361328 8.50754883 25.26361328 10.01367188 25.26953125 C11.41649414 25.26759766 11.41649414 25.26759766 12.84765625 25.265625 C13.7094751 25.26449707 14.57129395 25.26336914 15.45922852 25.26220703 C17.46665032 25.35498165 17.46665032 25.35498165 18.46875 24.1328125 C18.5679157 22.51023706 18.59954777 20.88341419 18.6015625 19.2578125 C18.60285156 18.27296875 18.60414063 17.288125 18.60546875 16.2734375 C18.59966797 14.71882813 18.59966797 14.71882813 18.59375 13.1328125 C18.59761719 12.09640625 18.60148437 11.06 18.60546875 9.9921875 C18.60417969 9.00734375 18.60289062 8.0225 18.6015625 7.0078125 C18.60043457 6.09773438 18.59930664 5.18765625 18.59814453 4.25 C18.70435009 2.1475277 18.70435009 2.1475277 17.46875 1.1328125 C15.84617456 1.0336468 14.21935169 1.00201473 12.59375 1 C11.60890625 0.99871094 10.6240625 0.99742187 9.609375 0.99609375 C8.05476563 1.00189453 8.05476563 1.00189453 6.46875 1.0078125 C5.43234375 1.00394531 4.3959375 1.00007813 3.328125 0.99609375 C2.34328125 0.99738281 1.3584375 0.99867188 0.34375 1 C-0.56632812 1.00112793 -1.47640625 1.00225586 -2.4140625 1.00341797 C-4.5165348 0.89721241 -4.5165348 0.89721241 -5.53125 2.1328125 Z " fill="#EF717A" transform="translate(420.53125,320.8671875)"/>
<path d="M0 0 C1.49249268 0.01571045 1.49249268 0.01571045 3.01513672 0.03173828 C4.6296875 0.04140625 4.6296875 0.04140625 6.27685547 0.05126953 C7.40478516 0.06802734 8.53271484 0.08478516 9.69482422 0.10205078 C11.39832031 0.11558594 11.39832031 0.11558594 13.13623047 0.12939453 C15.94751759 0.15301879 18.75869683 0.18889068 21.56982422 0.22705078 C21.56982422 7.15705078 21.56982422 14.08705078 21.56982422 21.22705078 C17.6113117 21.28078625 13.65352167 21.32059689 9.69482422 21.35205078 C8.56689453 21.36880859 7.43896484 21.38556641 6.27685547 21.40283203 C4.66230469 21.4125 4.66230469 21.4125 3.01513672 21.42236328 C1.52264404 21.43807373 1.52264404 21.43807373 0 21.45410156 C-2.43017578 21.22705078 -2.43017578 21.22705078 -4.43017578 19.22705078 C-4.6287455 16.35363017 -4.70846524 13.5984309 -4.68017578 10.72705078 C-4.68791016 9.94201172 -4.69564453 9.15697266 -4.70361328 8.34814453 C-4.67647358 0.43692188 -4.67647358 0.43692188 0 0 Z M-1.43017578 3.22705078 C-1.43017578 8.50705078 -1.43017578 13.78705078 -1.43017578 19.22705078 C5.16982422 19.22705078 11.76982422 19.22705078 18.56982422 19.22705078 C18.56982422 13.94705078 18.56982422 8.66705078 18.56982422 3.22705078 C11.96982422 3.22705078 5.36982422 3.22705078 -1.43017578 3.22705078 Z " fill="#F8D1D3" transform="translate(263.43017578125,293.77294921875)"/>
<path d="M0 0 C0.83724609 -0.01224609 1.67449219 -0.02449219 2.53710938 -0.03710938 C3.73883789 -0.04000977 3.73883789 -0.04000977 4.96484375 -0.04296875 C5.70210693 -0.04707764 6.43937012 -0.05118652 7.19897461 -0.05541992 C9.0625 0.1875 9.0625 0.1875 11.0625 2.1875 C11.30541992 4.41821289 11.30541992 4.41821289 11.29296875 7.16015625 C11.29103516 8.14177734 11.28910156 9.12339844 11.28710938 10.13476562 C11.26874023 11.67680664 11.26874023 11.67680664 11.25 13.25 C11.24935547 14.28189453 11.24871094 15.31378906 11.24804688 16.37695312 C11.20265997 24.04734003 11.20265997 24.04734003 10.0625 25.1875 C7.07231839 25.31417764 4.11555892 25.37270838 1.125 25.375 C0.28775391 25.38724609 -0.54949219 25.39949219 -1.41210938 25.41210938 C-2.61383789 25.41500977 -2.61383789 25.41500977 -3.83984375 25.41796875 C-4.57710693 25.42207764 -5.31437012 25.42618652 -6.07397461 25.43041992 C-7.9375 25.1875 -7.9375 25.1875 -9.9375 23.1875 C-10.18041992 20.95678711 -10.18041992 20.95678711 -10.16796875 18.21484375 C-10.16603516 17.23322266 -10.16410156 16.25160156 -10.16210938 15.24023438 C-10.14986328 14.21220703 -10.13761719 13.18417969 -10.125 12.125 C-10.12435547 11.09310547 -10.12371094 10.06121094 -10.12304688 8.99804688 C-10.06870614 -0.18553809 -9.12680633 0.00699372 0 0 Z M-6.9375 2.1875 C-6.9375 8.7875 -6.9375 15.3875 -6.9375 22.1875 C-1.9875 22.1875 2.9625 22.1875 8.0625 22.1875 C8.0625 15.5875 8.0625 8.9875 8.0625 2.1875 C3.1125 2.1875 -1.8375 2.1875 -6.9375 2.1875 Z " fill="#F6BDC0" transform="translate(387.9375,321.8125)"/>
<path d="M0 0 C3.97915159 -0.02886984 7.95827653 -0.04675406 11.9375 -0.0625 C13.07380859 -0.07087891 14.21011719 -0.07925781 15.38085938 -0.08789062 C16.46044922 -0.09111328 17.54003906 -0.09433594 18.65234375 -0.09765625 C20.15269165 -0.10551147 20.15269165 -0.10551147 21.68334961 -0.11352539 C24 0 24 0 25 1 C25.0983721 2.33043625 25.13078592 3.66593344 25.1328125 5 C25.13474609 6.2065625 25.13474609 6.2065625 25.13671875 7.4375 C25.13285156 8.283125 25.12898438 9.12875 25.125 10 C25.13080078 11.2684375 25.13080078 11.2684375 25.13671875 12.5625 C25.13542969 13.366875 25.13414062 14.17125 25.1328125 15 C25.13168457 15.7425 25.13055664 16.485 25.12939453 17.25 C25 19 25 19 24 20 C22.30441274 20.09932153 20.60474253 20.13080007 18.90625 20.1328125 C17.87628906 20.13410156 16.84632813 20.13539063 15.78515625 20.13671875 C14.15900391 20.13091797 14.15900391 20.13091797 12.5 20.125 C11.41589844 20.12886719 10.33179688 20.13273437 9.21484375 20.13671875 C8.18488281 20.13542969 7.15492188 20.13414062 6.09375 20.1328125 C5.14177734 20.13168457 4.18980469 20.13055664 3.20898438 20.12939453 C1 20 1 20 0 19 C-0.08651611 17.58429877 -0.10704904 16.164405 -0.09765625 14.74609375 C-0.09443359 13.89208984 -0.09121094 13.03808594 -0.08789062 12.15820312 C-0.07951172 11.26037109 -0.07113281 10.36253906 -0.0625 9.4375 C-0.05798828 8.53580078 -0.05347656 7.63410156 -0.04882812 6.70507812 C-0.03700225 4.46998686 -0.0205222 2.23502563 0 0 Z M2 2 C2 6.95 2 11.9 2 17 C8.6 17 15.2 17 22 17 C22 12.05 22 7.1 22 2 C15.4 2 8.8 2 2 2 Z " fill="#F6BFC2" transform="translate(415,350)"/>
<path d="M0 0 C0.9583374 0.00523682 1.9166748 0.01047363 2.90405273 0.01586914 C4.45576172 0.02070313 4.45576172 0.02070313 6.03881836 0.02563477 C7.12743164 0.03401367 8.21604492 0.04239258 9.33764648 0.05102539 C10.97636719 0.05779297 10.97636719 0.05779297 12.64819336 0.06469727 C15.35723144 0.07652713 18.06616248 0.09300996 20.77514648 0.11352539 C22.42353592 3.41030427 21.91787386 7.05668583 21.90014648 10.67602539 C21.90594727 11.86615234 21.90594727 11.86615234 21.91186523 13.08032227 C21.90177715 18.98689472 21.90177715 18.98689472 20.77514648 20.11352539 C19.07955923 20.21284693 17.37988901 20.24432546 15.68139648 20.24633789 C14.65143555 20.24762695 13.62147461 20.24891602 12.56030273 20.25024414 C10.93415039 20.24444336 10.93415039 20.24444336 9.27514648 20.23852539 C8.19104492 20.24239258 7.10694336 20.24625977 5.98999023 20.25024414 C4.9600293 20.24895508 3.93006836 20.24766602 2.86889648 20.24633789 C1.91692383 20.24520996 0.96495117 20.24408203 -0.01586914 20.24291992 C-2.22485352 20.11352539 -2.22485352 20.11352539 -3.22485352 19.11352539 C-3.32322562 17.78308914 -3.35563944 16.44759195 -3.35766602 15.11352539 C-3.35895508 14.30915039 -3.36024414 13.50477539 -3.36157227 12.67602539 C-3.35770508 11.83040039 -3.35383789 10.98477539 -3.34985352 10.11352539 C-3.3537207 9.26790039 -3.35758789 8.42227539 -3.36157227 7.55102539 C-3.3602832 6.74665039 -3.35899414 5.94227539 -3.35766602 5.11352539 C-3.35653809 4.37102539 -3.35541016 3.62852539 -3.35424805 2.86352539 C-3.15582021 0.17988246 -2.67935443 0.13671676 0 0 Z M-0.22485352 2.11352539 C-0.22485352 7.39352539 -0.22485352 12.67352539 -0.22485352 18.11352539 C6.37514648 18.11352539 12.97514648 18.11352539 19.77514648 18.11352539 C19.77514648 12.83352539 19.77514648 7.55352539 19.77514648 2.11352539 C13.17514648 2.11352539 6.57514648 2.11352539 -0.22485352 2.11352539 Z " fill="#F6BEC1" transform="translate(262.224853515625,321.886474609375)"/>
<path d="M0 0 C1.03688965 0.01047363 2.0737793 0.02094727 3.14208984 0.03173828 C4.26357422 0.03818359 5.38505859 0.04462891 6.54052734 0.05126953 C7.71615234 0.06802734 8.89177734 0.08478516 10.10302734 0.10205078 C11.87806641 0.11558594 11.87806641 0.11558594 13.68896484 0.12939453 C16.61885257 0.15302266 19.54834075 0.18596564 22.47802734 0.22705078 C22.50690548 3.70620019 22.52478421 7.18531909 22.54052734 10.66455078 C22.54890625 11.65777344 22.55728516 12.65099609 22.56591797 13.67431641 C22.57075195 15.09067383 22.57075195 15.09067383 22.57568359 16.53564453 C22.58353882 17.84746704 22.58353882 17.84746704 22.59155273 19.18579102 C22.47802734 21.22705078 22.47802734 21.22705078 21.47802734 22.22705078 C19.63643712 22.32664699 17.79105767 22.35785489 15.94677734 22.35986328 C14.82658203 22.36115234 13.70638672 22.36244141 12.55224609 22.36376953 C11.37275391 22.35990234 10.19326172 22.35603516 8.97802734 22.35205078 C7.20878906 22.35785156 7.20878906 22.35785156 5.40380859 22.36376953 C3.72351563 22.36183594 3.72351563 22.36183594 2.00927734 22.35986328 C0.97351563 22.35873535 -0.06224609 22.35760742 -1.12939453 22.35644531 C-3.52197266 22.22705078 -3.52197266 22.22705078 -4.52197266 21.22705078 C-4.77163832 18.08881628 -4.70719056 14.93655465 -4.70947266 11.78955078 C-4.72171875 10.90460938 -4.73396484 10.01966797 -4.74658203 9.10791016 C-4.74851562 8.26164062 -4.75044922 7.41537109 -4.75244141 6.54345703 C-4.75655029 5.76429932 -4.76065918 4.9851416 -4.76489258 4.18237305 C-4.36530763 0.96601543 -3.11186873 0.28015856 0 0 Z M-2.52197266 2.22705078 C-2.59522434 5.08972645 -2.61435471 7.92776978 -2.58447266 10.78955078 C-2.57996094 11.59585937 -2.57544922 12.40216797 -2.57080078 13.23291016 C-2.55897783 15.23098834 -2.5410418 17.22902861 -2.52197266 19.22705078 C-0.13758557 20.41924433 1.35458736 20.356211 4.01318359 20.35986328 C4.90457031 20.36115234 5.79595703 20.36244141 6.71435547 20.36376953 C7.64699219 20.35990234 8.57962891 20.35603516 9.54052734 20.35205078 C10.47703125 20.35591797 11.41353516 20.35978516 12.37841797 20.36376953 C13.26851563 20.36248047 14.15861328 20.36119141 15.07568359 20.35986328 C16.30557007 20.35817139 16.30557007 20.35817139 17.56030273 20.35644531 C19.48667501 20.43770322 19.48667501 20.43770322 20.47802734 19.22705078 C20.5780519 16.57051635 20.61680197 13.94575806 20.60302734 11.28955078 C20.60689453 10.54769531 20.61076172 9.80583984 20.61474609 9.04150391 C20.69542402 5.00382201 20.69542402 5.00382201 19.47802734 1.22705078 C15.99887793 1.19817264 12.51975904 1.18029391 9.04052734 1.16455078 C8.04730469 1.15617187 7.05408203 1.14779297 6.03076172 1.13916016 C5.08652344 1.1359375 4.14228516 1.13271484 3.16943359 1.12939453 C2.29488525 1.12415771 1.42033691 1.1189209 0.51928711 1.11352539 C-1.51637471 0.9992027 -1.51637471 0.9992027 -2.52197266 2.22705078 Z " fill="#F07B83" transform="translate(340.52197265625,293.77294921875)"/>
<path d="M0 0 C0.9583374 0.00523682 1.9166748 0.01047363 2.90405273 0.01586914 C3.83548096 0.0183667 4.76690918 0.02086426 5.7265625 0.0234375 C7.51404907 0.03709351 7.51404907 0.03709351 9.33764648 0.05102539 C13.11202148 0.07165039 16.88639648 0.09227539 20.77514648 0.11352539 C20.77514648 8.03352539 20.77514648 15.95352539 20.77514648 24.11352539 C13.18514648 24.11352539 5.59514648 24.11352539 -2.22485352 24.11352539 C-3.44343459 21.67636324 -3.35410927 20.08078482 -3.35766602 17.35961914 C-3.35895508 16.42311523 -3.36024414 15.48661133 -3.36157227 14.52172852 C-3.35770508 13.54139648 -3.35383789 12.56106445 -3.34985352 11.55102539 C-3.3537207 10.56682617 -3.35758789 9.58262695 -3.36157227 8.56860352 C-3.3602832 7.63338867 -3.35899414 6.69817383 -3.35766602 5.73461914 C-3.35653809 4.87280029 -3.35541016 4.01098145 -3.35424805 3.12304688 C-3.17006942 0.26271803 -2.86592804 0.14623686 0 0 Z M-2.22485352 2.11352539 C-2.22485352 8.71352539 -2.22485352 15.31352539 -2.22485352 22.11352539 C4.70514648 22.11352539 11.63514648 22.11352539 18.77514648 22.11352539 C18.77514648 15.51352539 18.77514648 8.91352539 18.77514648 2.11352539 C11.84514648 2.11352539 4.91514648 2.11352539 -2.22485352 2.11352539 Z " fill="#F6C2C5" transform="translate(341.224853515625,376.886474609375)"/>
<path d="M0 0 C0.9583374 0.00523682 1.9166748 0.01047363 2.90405273 0.01586914 C4.45576172 0.02070313 4.45576172 0.02070313 6.03881836 0.02563477 C7.12743164 0.03401367 8.21604492 0.04239258 9.33764648 0.05102539 C10.97636719 0.05779297 10.97636719 0.05779297 12.64819336 0.06469727 C15.35723144 0.07652713 18.06616248 0.09300996 20.77514648 0.11352539 C21.92341498 2.41006239 21.89075823 3.69665706 21.87280273 6.24633789 C21.86958008 7.05200195 21.86635742 7.85766602 21.86303711 8.68774414 C21.8546582 9.52950195 21.8462793 10.37125977 21.83764648 11.23852539 C21.83313477 12.08801758 21.82862305 12.93750977 21.82397461 13.81274414 C21.81217523 15.91303448 21.79423955 18.01328869 21.77514648 20.11352539 C19.21791419 21.39214154 17.40777546 21.22689148 14.54858398 21.21118164 C13.51733398 21.20795898 12.48608398 21.20473633 11.42358398 21.20141602 C9.80323242 21.18884766 9.80323242 21.18884766 8.15014648 21.17602539 C6.51819336 21.16925781 6.51819336 21.16925781 4.85327148 21.16235352 C2.16050859 21.15054315 -0.5321454 21.13407318 -3.22485352 21.11352539 C-3.25373498 17.80104352 -3.27161151 14.48859372 -3.28735352 11.17602539 C-3.29573242 10.23049805 -3.30411133 9.2849707 -3.31274414 8.31079102 C-3.3159668 7.41166992 -3.31918945 6.51254883 -3.32250977 5.58618164 C-3.32774658 4.75352783 -3.3329834 3.92087402 -3.33837891 3.06298828 C-3.17402897 0.24076408 -2.82319809 0.14405652 0 0 Z M-1.22485352 2.11352539 C-1.22485352 7.72352539 -1.22485352 13.33352539 -1.22485352 19.11352539 C6.03514648 19.11352539 13.29514648 19.11352539 20.77514648 19.11352539 C20.77514648 13.50352539 20.77514648 7.89352539 20.77514648 2.11352539 C13.51514648 2.11352539 6.25514648 2.11352539 -1.22485352 2.11352539 Z " fill="#F3A6AB" transform="translate(262.224853515625,266.886474609375)"/>
<path d="M0 0 C1.49249268 0.01571045 1.49249268 0.01571045 3.01513672 0.03173828 C4.6296875 0.04140625 4.6296875 0.04140625 6.27685547 0.05126953 C7.40478516 0.06802734 8.53271484 0.08478516 9.69482422 0.10205078 C11.39832031 0.11558594 11.39832031 0.11558594 13.13623047 0.12939453 C15.94763721 0.1530198 18.7586272 0.18596065 21.56982422 0.22705078 C21.59870568 3.53953265 21.61658221 6.85198245 21.63232422 10.16455078 C21.64070313 11.11007812 21.64908203 12.05560547 21.65771484 13.02978516 C21.66254883 14.3784668 21.66254883 14.3784668 21.66748047 15.75439453 C21.67533569 17.00337524 21.67533569 17.00337524 21.68334961 18.27758789 C21.56982422 20.22705078 21.56982422 20.22705078 20.56982422 21.22705078 C16.76394277 21.479138 12.94556966 21.41227422 9.13232422 21.41455078 C7.51874023 21.43291992 7.51874023 21.43291992 5.87255859 21.45166016 C4.84582031 21.45359375 3.81908203 21.45552734 2.76123047 21.45751953 C1.34112671 21.46368286 1.34112671 21.46368286 -0.10766602 21.4699707 C-2.43017578 21.22705078 -2.43017578 21.22705078 -4.43017578 19.22705078 C-4.6287455 16.35363017 -4.70846524 13.5984309 -4.68017578 10.72705078 C-4.68791016 9.94201172 -4.69564453 9.15697266 -4.70361328 8.34814453 C-4.67647358 0.43692188 -4.67647358 0.43692188 0 0 Z M-2.43017578 2.22705078 C-2.45080078 4.82580078 -2.47142578 7.42455078 -2.49267578 10.10205078 C-2.50177979 10.91915527 -2.51088379 11.73625977 -2.52026367 12.578125 C-2.62168219 16.53071205 -2.62168219 16.53071205 -1.43017578 20.22705078 C5.49982422 20.22705078 12.42982422 20.22705078 19.56982422 20.22705078 C19.56982422 14.28705078 19.56982422 8.34705078 19.56982422 2.22705078 C12.30982422 2.22705078 5.04982422 2.22705078 -2.43017578 2.22705078 Z " fill="#F2999E" transform="translate(263.43017578125,403.77294921875)"/>
<path d="M0 0 C2.31 0 4.62 0 7 0 C7.13277344 0.74765625 7.26554687 1.4953125 7.40234375 2.265625 C7.57894531 3.25046875 7.75554687 4.2353125 7.9375 5.25 C8.11152344 6.22453125 8.28554688 7.1990625 8.46484375 8.203125 C8.90135133 10.48443468 9.43666368 12.74665473 10 15 C5.38 15 0.76 15 -4 15 C-3 11 -3 11 -2 10 C-1.6068352 8.32115762 -1.25914548 6.63149955 -0.9375 4.9375 C-0.76089844 4.01839844 -0.58429688 3.09929687 -0.40234375 2.15234375 C-0.26957031 1.44207031 -0.13679688 0.73179687 0 0 Z " fill="#FEC027" transform="translate(271,242)"/>
<path d="M0 0 C1.12019531 -0.00128906 2.24039062 -0.00257813 3.39453125 -0.00390625 C4.57402344 -0.00003906 5.75351562 0.00382812 6.96875 0.0078125 C8.73798828 0.00201172 8.73798828 0.00201172 10.54296875 -0.00390625 C12.22326172 -0.00197266 12.22326172 -0.00197266 13.9375 0 C14.97326172 0.00112793 16.00902344 0.00225586 17.07617188 0.00341797 C19.46875 0.1328125 19.46875 0.1328125 20.46875 1.1328125 C20.55560603 2.69453995 20.57577219 4.26010594 20.56640625 5.82421875 C20.56318359 6.76845703 20.55996094 7.71269531 20.55664062 8.68554688 C20.54826172 9.67876953 20.53988281 10.67199219 20.53125 11.6953125 C20.52673828 12.69240234 20.52222656 13.68949219 20.51757812 14.71679688 C20.50575007 17.18886099 20.48926849 19.66080768 20.46875 22.1328125 C16.34380849 22.19065958 12.21897056 22.22635657 8.09375 22.2578125 C6.918125 22.27457031 5.7425 22.29132813 4.53125 22.30859375 C2.84902344 22.31826172 2.84902344 22.31826172 1.1328125 22.328125 C0.09592285 22.33859863 -0.9409668 22.34907227 -2.00927734 22.35986328 C-4.53125 22.1328125 -4.53125 22.1328125 -6.53125 20.1328125 C-6.77416992 18.17749023 -6.77416992 18.17749023 -6.76171875 15.81640625 C-6.75978516 14.97013672 -6.75785156 14.12386719 -6.75585938 13.25195312 C-6.74361328 12.36701172 -6.73136719 11.48207031 -6.71875 10.5703125 C-6.71810547 9.68150391 -6.71746094 8.79269531 -6.71679688 7.87695312 C-6.66277149 0.00725566 -6.66277149 0.00725566 0 0 Z M-4.53125 4.1328125 C-4.70326285 6.67510409 -4.76382617 9.09431246 -4.71875 11.6328125 C-4.71810547 12.32246094 -4.71746094 13.01210938 -4.71679688 13.72265625 C-4.73490609 17.55516444 -4.73490609 17.55516444 -3.53125 21.1328125 C4.05875 21.1328125 11.64875 21.1328125 19.46875 21.1328125 C19.489375 18.1834375 19.51 15.2340625 19.53125 12.1953125 C19.540354 11.26468994 19.54945801 10.33406738 19.55883789 9.37524414 C19.56133545 8.64684326 19.56383301 7.91844238 19.56640625 7.16796875 C19.57164307 6.419104 19.57687988 5.67023926 19.58227539 4.89868164 C19.66216752 3.10613511 19.66216752 3.10613511 18.46875 2.1328125 C14.99666193 1.88182326 11.5113438 1.94759154 8.03125 1.9453125 C7.05091797 1.93306641 6.07058594 1.92082031 5.06054688 1.90820312 C3.65579102 1.90530273 3.65579102 1.90530273 2.22265625 1.90234375 C0.92823608 1.89618042 0.92823608 1.89618042 -0.39233398 1.88989258 C-2.74594927 1.9323145 -2.74594927 1.9323145 -4.53125 4.1328125 Z " fill="#EF7880" transform="translate(342.53125,265.8671875)"/>
<path d="M0 0 C1.29442017 0.00616333 1.29442017 0.00616333 2.61499023 0.01245117 C4.01974609 0.01535156 4.01974609 0.01535156 5.45288086 0.01831055 C6.43321289 0.03055664 7.41354492 0.04280273 8.42358398 0.05541992 C9.4077832 0.05606445 10.39198242 0.05670898 11.40600586 0.05737305 C18.72090866 0.1027446 18.72090866 0.1027446 19.86108398 1.24291992 C19.94740273 2.58559405 19.96814872 3.93266314 19.95874023 5.27807617 C19.95624268 6.00647705 19.95374512 6.73487793 19.95117188 7.48535156 C19.94206787 8.41597412 19.93296387 9.34659668 19.92358398 10.30541992 C19.90295898 13.25479492 19.88233398 16.20416992 19.86108398 19.24291992 C12.27108398 19.24291992 4.68108398 19.24291992 -3.13891602 19.24291992 C-4.65603592 16.20868011 -4.32330858 13.06787198 -4.32641602 9.74291992 C-4.33866211 9.05327148 -4.3509082 8.36362305 -4.36352539 7.65307617 C-4.36880297 5.84814498 -4.26076059 4.0437415 -4.13891602 2.24291992 C-2.13891602 0.24291992 -2.13891602 0.24291992 0 0 Z M-2.13891602 2.24291992 C-2.13891602 7.19291992 -2.13891602 12.14291992 -2.13891602 17.24291992 C4.46108398 17.24291992 11.06108398 17.24291992 17.86108398 17.24291992 C17.86108398 11.96291992 17.86108398 6.68291992 17.86108398 1.24291992 C15.48920898 1.22229492 13.11733398 1.20166992 10.67358398 1.18041992 C9.93599854 1.17131592 9.19841309 1.16221191 8.43847656 1.15283203 C4.67496003 1.13707659 1.59935161 1.4952664 -2.13891602 2.24291992 Z " fill="#F7CBCD" transform="translate(342.138916015625,267.757080078125)"/>
<path d="M0 0 C0.98484375 -0.00128906 1.9696875 -0.00257813 2.984375 -0.00390625 C4.02078125 -0.00003906 5.0571875 0.00382812 6.125 0.0078125 C7.67960937 0.00201172 7.67960937 0.00201172 9.265625 -0.00390625 C10.25046875 -0.00261719 11.2353125 -0.00132812 12.25 0 C13.16007812 0.00112793 14.07015625 0.00225586 15.0078125 0.00341797 C17.125 0.1328125 17.125 0.1328125 18.125 1.1328125 C18.2241657 2.75538794 18.25579777 4.38221081 18.2578125 6.0078125 C18.25974609 7.48507812 18.25974609 7.48507812 18.26171875 8.9921875 C18.25785156 10.02859375 18.25398438 11.065 18.25 12.1328125 C18.25580078 13.68742187 18.25580078 13.68742187 18.26171875 15.2734375 C18.26042969 16.25828125 18.25914062 17.243125 18.2578125 18.2578125 C18.25668457 19.16789062 18.25555664 20.07796875 18.25439453 21.015625 C18.125 23.1328125 18.125 23.1328125 17.125 24.1328125 C15.58718409 24.23183357 14.04490556 24.26360817 12.50390625 24.265625 C11.10108398 24.26755859 11.10108398 24.26755859 9.66992188 24.26953125 C8.68572266 24.26566406 7.70152344 24.26179688 6.6875 24.2578125 C5.21700195 24.26361328 5.21700195 24.26361328 3.71679688 24.26953125 C2.78029297 24.26824219 1.84378906 24.26695312 0.87890625 24.265625 C-0.41551392 24.26393311 -0.41551392 24.26393311 -1.73608398 24.26220703 C-3.875 24.1328125 -3.875 24.1328125 -5.875 23.1328125 C-5.90387512 19.48699563 -5.92175585 15.84120787 -5.9375 12.1953125 C-5.94587891 11.15439453 -5.95425781 10.11347656 -5.96289062 9.04101562 C-5.96772461 7.55698242 -5.96772461 7.55698242 -5.97265625 6.04296875 C-5.97789307 5.12652588 -5.98312988 4.21008301 -5.98852539 3.26586914 C-5.77241379 -0.79470513 -3.52713025 0.00437144 0 0 Z M-3.875 2.1328125 C-3.90388146 5.44529437 -3.92175799 8.75774417 -3.9375 12.0703125 C-3.94587891 13.01583984 -3.95425781 13.96136719 -3.96289062 14.93554688 C-3.96611328 15.83466797 -3.96933594 16.73378906 -3.97265625 17.66015625 C-3.97789307 18.49281006 -3.98312988 19.32546387 -3.98852539 20.18334961 C-4.09143292 22.13798048 -4.09143292 22.13798048 -2.875 23.1328125 C-1.3862814 23.21950682 0.106445 23.23984744 1.59765625 23.23046875 C2.94633789 23.22563477 2.94633789 23.22563477 4.32226562 23.22070312 C5.26779297 23.21232422 6.21332031 23.20394531 7.1875 23.1953125 C8.6115918 23.18854492 8.6115918 23.18854492 10.06445312 23.18164062 C12.41803065 23.1698136 14.77148477 23.15333275 17.125 23.1328125 C17.15388146 19.82033063 17.17175799 16.50788083 17.1875 13.1953125 C17.19587891 12.24978516 17.20425781 11.30425781 17.21289062 10.33007812 C17.21611328 9.43095703 17.21933594 8.53183594 17.22265625 7.60546875 C17.22789307 6.77281494 17.23312988 5.94016113 17.23852539 5.08227539 C17.34143292 3.12764452 17.34143292 3.12764452 16.125 2.1328125 C14.6362814 2.04611818 13.143555 2.02577756 11.65234375 2.03515625 C10.30366211 2.03999023 10.30366211 2.03999023 8.92773438 2.04492188 C7.98220703 2.05330078 7.03667969 2.06167969 6.0625 2.0703125 C5.11310547 2.07482422 4.16371094 2.07933594 3.18554688 2.08398438 C0.83196935 2.0958114 -1.52148477 2.11229225 -3.875 2.1328125 Z " fill="#F6C0C3" transform="translate(420.875,321.8671875)"/>
<path d="M0 0 C0.87454834 0.00523682 1.74909668 0.01047363 2.65014648 0.01586914 C3.59438477 0.0190918 4.53862305 0.02231445 5.51147461 0.02563477 C6.50469727 0.03401367 7.49791992 0.04239258 8.52124023 0.05102539 C9.51833008 0.05553711 10.51541992 0.06004883 11.54272461 0.06469727 C14.01478872 0.07652532 16.48673541 0.0930069 18.95874023 0.11352539 C20.54570868 3.28746228 20.10188493 6.69526744 20.08374023 10.17602539 C20.08954102 11.29460937 20.08954102 11.29460937 20.09545898 12.43579102 C20.08537524 17.98689038 20.08537524 17.98689038 18.95874023 19.11352539 C17.49395518 19.21235876 16.02451065 19.24431828 14.55639648 19.24633789 C13.66629883 19.24762695 12.77620117 19.24891602 11.85913086 19.25024414 C10.92262695 19.24637695 9.98612305 19.24250977 9.02124023 19.23852539 C8.08860352 19.24239258 7.1559668 19.24625977 6.19506836 19.25024414 C5.30368164 19.24895508 4.41229492 19.24766602 3.49389648 19.24633789 C2.67284424 19.24520996 1.85179199 19.24408203 1.00585938 19.24291992 C-1.04125977 19.11352539 -1.04125977 19.11352539 -3.04125977 18.11352539 C-3.06810289 15.30096258 -3.08802164 12.48865298 -3.10375977 9.67602539 C-3.11213867 8.87358398 -3.12051758 8.07114258 -3.12915039 7.24438477 C-3.13777407 5.20057318 -3.09354126 3.15668637 -3.04125977 1.11352539 C-2.04125977 0.11352539 -2.04125977 0.11352539 0 0 Z M-2.04125977 2.11352539 C-2.04125977 7.06352539 -2.04125977 12.01352539 -2.04125977 17.11352539 C4.55874023 17.11352539 11.15874023 17.11352539 17.95874023 17.11352539 C17.95874023 12.16352539 17.95874023 7.21352539 17.95874023 2.11352539 C11.35874023 2.11352539 4.75874023 2.11352539 -2.04125977 2.11352539 Z " fill="#F9D6D8" transform="translate(341.041259765625,294.886474609375)"/>
<path d="M0 0 C2.65664779 0.15180845 4.45217862 0.52011425 6.48046875 2.296875 C7.875 3.875 7.875 3.875 10 7 C9.67 7.99 9.34 8.98 9 10 C7.02253397 10.73080266 5.01927511 11.39421747 3 12 C2.01 12.66 1.02 13.32 0 14 C-1.32 14 -2.64 14 -4 14 C-3.66009167 8.62007164 -3.31442207 4.46726453 0 0 Z " fill="#FDBB27" transform="translate(348,327)"/>
<path d="M0 0 C3.3 0 6.6 0 10 0 C10 0.99 10 1.98 10 3 C9.67 2.67 9.34 2.34 9 2 C6.32941149 1.85884839 3.67567762 1.95752893 1 2 C0.690625 2.94875 0.38125 3.8975 0.0625 4.875 C-1 8 -1 8 -2 10 C-2.22467831 11.53668865 -2.40796805 13.07968054 -2.5625 14.625 C-2.706875 16.06875 -2.85125 17.5125 -3 19 C2.61 19 8.22 19 14 19 C13.505 17.63875 13.01 16.2775 12.5 14.875 C11.23551419 11.1171619 10.69247039 7.99788492 11 4 C12.984375 5.08203125 12.984375 5.08203125 15 7 C15.390625 10.13671875 15.390625 10.13671875 15.25 13.6875 C15.21390625 14.86699219 15.1778125 16.04648437 15.140625 17.26171875 C15.07101562 18.61716797 15.07101562 18.61716797 15 20 C11.84044583 21.57977708 8.46536183 21.18447084 5 21.1875 C4.26265625 21.19974609 3.5253125 21.21199219 2.765625 21.22460938 C0.84229942 21.22987395 -1.08054263 21.12203447 -3 21 C-5.69101234 18.30898766 -5.29887549 16.80924054 -5.3125 13.0625 C-5.32925781 12.00160156 -5.34601563 10.94070313 -5.36328125 9.84765625 C-4.94946583 6.60387732 -4.40210416 6.05143202 -2 4 C-1.34 2.68 -0.68 1.36 0 0 Z " fill="#F27634" transform="translate(269,349)"/>
<path d="M0 0 C2.81388646 0.70896749 4.05615017 1.29342215 6 3.50390625 C6.49729778 6.41240328 6.37539745 9.25180065 6.25 12.19140625 C6.23195313 12.98869141 6.21390625 13.78597656 6.1953125 14.60742188 C6.14822247 16.57343074 6.07647899 18.53882119 6 20.50390625 C1.38 20.50390625 -3.24 20.50390625 -8 20.50390625 C-8 20.17390625 -8 19.84390625 -8 19.50390625 C-4.37 19.17390625 -0.74 18.84390625 3 18.50390625 C3 13.88390625 3 9.26390625 3 4.50390625 C0.69 4.17390625 -1.62 3.84390625 -4 3.50390625 C-4.65134925 5.06411492 -5.29582964 6.62719204 -5.9375 8.19140625 C-6.29714844 9.06152344 -6.65679687 9.93164062 -7.02734375 10.828125 C-7.9570312 13.3856989 -8.54162625 15.82603855 -9 18.50390625 C-9.33 18.50390625 -9.66 18.50390625 -10 18.50390625 C-10.68622921 6.72363823 -10.68622921 6.72363823 -8.5 2.75390625 C-5.47225232 0.02893334 -3.94258221 -0.11550534 0 0 Z " fill="#F06736" transform="translate(430,376.49609375)"/>
<path d="M0 0 C1.02996094 -0.00128906 2.05992187 -0.00257813 3.12109375 -0.00390625 C4.74724609 0.00189453 4.74724609 0.00189453 6.40625 0.0078125 C7.49035156 0.00394531 8.57445312 0.00007813 9.69140625 -0.00390625 C10.72136719 -0.00261719 11.75132812 -0.00132812 12.8125 0 C14.24045898 0.00169189 14.24045898 0.00169189 15.69726562 0.00341797 C17.90625 0.1328125 17.90625 0.1328125 18.90625 1.1328125 C19.0054157 2.75538794 19.03704777 4.38221081 19.0390625 6.0078125 C19.04099609 7.48507812 19.04099609 7.48507812 19.04296875 8.9921875 C19.03910156 10.02859375 19.03523438 11.065 19.03125 12.1328125 C19.03705078 13.68742187 19.03705078 13.68742187 19.04296875 15.2734375 C19.04167969 16.25828125 19.04039062 17.243125 19.0390625 18.2578125 C19.03793457 19.16789062 19.03680664 20.07796875 19.03564453 21.015625 C18.90625 23.1328125 18.90625 23.1328125 17.90625 24.1328125 C16.21066274 24.23213403 14.51099253 24.26361257 12.8125 24.265625 C11.78253906 24.26691406 10.75257813 24.26820313 9.69140625 24.26953125 C8.06525391 24.26373047 8.06525391 24.26373047 6.40625 24.2578125 C5.32214844 24.26167969 4.23804688 24.26554687 3.12109375 24.26953125 C2.09113281 24.26824219 1.06117188 24.26695312 0 24.265625 C-0.95197266 24.26449707 -1.90394531 24.26336914 -2.88476562 24.26220703 C-5.09375 24.1328125 -5.09375 24.1328125 -6.09375 23.1328125 C-6.1929157 21.51023706 -6.22454777 19.88341419 -6.2265625 18.2578125 C-6.22785156 17.27296875 -6.22914063 16.288125 -6.23046875 15.2734375 C-6.22660156 14.23703125 -6.22273438 13.200625 -6.21875 12.1328125 C-6.22455078 10.57820313 -6.22455078 10.57820313 -6.23046875 8.9921875 C-6.22917969 8.00734375 -6.22789062 7.0225 -6.2265625 6.0078125 C-6.22543457 5.09773438 -6.22430664 4.18765625 -6.22314453 3.25 C-5.97156325 -0.86643946 -3.56423097 0.00422302 0 0 Z M-4.09375 1.1328125 C-4.12262814 4.61196191 -4.14050687 8.09108081 -4.15625 11.5703125 C-4.16462891 12.56353516 -4.17300781 13.55675781 -4.18164062 14.58007812 C-4.18486328 15.52431641 -4.18808594 16.46855469 -4.19140625 17.44140625 C-4.19664307 18.31595459 -4.20187988 19.19050293 -4.20727539 20.09155273 C-4.32159809 22.12721456 -4.32159809 22.12721456 -3.09375 23.1328125 C-1.53202255 23.21966853 0.03354344 23.23983469 1.59765625 23.23046875 C2.54189453 23.22724609 3.48613281 23.22402344 4.45898438 23.22070312 C5.94881836 23.20813477 5.94881836 23.20813477 7.46875 23.1953125 C8.46583984 23.19080078 9.46292969 23.18628906 10.49023438 23.18164062 C12.96229849 23.16981257 15.43424518 23.15333099 17.90625 23.1328125 C17.93512814 19.65366309 17.95300687 16.17454419 17.96875 12.6953125 C17.97712891 11.70208984 17.98550781 10.70886719 17.99414062 9.68554688 C17.99736328 8.74130859 18.00058594 7.79707031 18.00390625 6.82421875 C18.00914307 5.94967041 18.01437988 5.07512207 18.01977539 4.17407227 C18.13409809 2.13841044 18.13409809 2.13841044 16.90625 1.1328125 C15.34452255 1.04595647 13.77895656 1.02579031 12.21484375 1.03515625 C11.27060547 1.03837891 10.32636719 1.04160156 9.35351562 1.04492188 C7.86368164 1.05749023 7.86368164 1.05749023 6.34375 1.0703125 C5.34666016 1.07482422 4.34957031 1.07933594 3.32226562 1.08398438 C0.85020151 1.09581243 -1.62174518 1.11229401 -4.09375 1.1328125 Z " fill="#F4AEB1" transform="translate(265.09375,376.8671875)"/>
<path d="M0 0 C1.02996094 -0.00128906 2.05992187 -0.00257813 3.12109375 -0.00390625 C4.74724609 0.00189453 4.74724609 0.00189453 6.40625 0.0078125 C7.49035156 0.00394531 8.57445312 0.00007813 9.69140625 -0.00390625 C10.72136719 -0.00261719 11.75132812 -0.00132812 12.8125 0 C14.24045898 0.00169189 14.24045898 0.00169189 15.69726562 0.00341797 C17.90625 0.1328125 17.90625 0.1328125 18.90625 1.1328125 C18.99325342 2.76754132 19.01326063 4.40595305 19.00390625 6.04296875 C19.00068359 7.03232422 18.99746094 8.02167969 18.99414062 9.04101562 C18.98576172 10.08193359 18.97738281 11.12285156 18.96875 12.1953125 C18.96423828 13.24009766 18.95972656 14.28488281 18.95507812 15.36132812 C18.94324913 17.9518791 18.92676689 20.54231809 18.90625 23.1328125 C18.24625 23.1328125 17.58625 23.1328125 16.90625 23.1328125 C16.57625 16.2028125 16.24625 9.2728125 15.90625 2.1328125 C9.30625 1.8028125 2.70625 1.4728125 -4.09375 1.1328125 C-4.09375 8.3928125 -4.09375 15.6528125 -4.09375 23.1328125 C-4.75375 23.1328125 -5.41375 23.1328125 -6.09375 23.1328125 C-6.12262512 19.48699563 -6.14050585 15.84120787 -6.15625 12.1953125 C-6.16462891 11.15439453 -6.17300781 10.11347656 -6.18164062 9.04101562 C-6.18647461 7.55698242 -6.18647461 7.55698242 -6.19140625 6.04296875 C-6.19664307 5.12652588 -6.20187988 4.21008301 -6.20727539 3.26586914 C-5.98719426 -0.86928971 -3.57359654 0.00423412 0 0 Z " fill="#F5BBBE" transform="translate(421.09375,404.8671875)"/>
<path d="M0 0 C1.49249268 0.01571045 1.49249268 0.01571045 3.01513672 0.03173828 C4.6296875 0.04140625 4.6296875 0.04140625 6.27685547 0.05126953 C7.40478516 0.06802734 8.53271484 0.08478516 9.69482422 0.10205078 C11.39832031 0.11558594 11.39832031 0.11558594 13.13623047 0.12939453 C15.94751759 0.15301879 18.75869683 0.18889068 21.56982422 0.22705078 C21.56982422 7.15705078 21.56982422 14.08705078 21.56982422 21.22705078 C17.6113117 21.28078625 13.65352167 21.32059689 9.69482422 21.35205078 C8.56689453 21.36880859 7.43896484 21.38556641 6.27685547 21.40283203 C4.66230469 21.4125 4.66230469 21.4125 3.01513672 21.42236328 C1.52264404 21.43807373 1.52264404 21.43807373 0 21.45410156 C-2.43017578 21.22705078 -2.43017578 21.22705078 -4.43017578 19.22705078 C-4.6287455 16.35363017 -4.70846524 13.5984309 -4.68017578 10.72705078 C-4.68791016 9.94201172 -4.69564453 9.15697266 -4.70361328 8.34814453 C-4.67647358 0.43692188 -4.67647358 0.43692188 0 0 Z M-3.43017578 3.22705078 C-3.57525273 5.97190671 -3.61670001 8.61185621 -3.55517578 11.35205078 C-3.54615234 12.10615234 -3.53712891 12.86025391 -3.52783203 13.63720703 C-3.50424448 15.50062332 -3.46837297 17.36387671 -3.43017578 19.22705078 C-0.97742437 20.45342648 0.62040232 20.34120393 3.35888672 20.32470703 C4.77041016 20.31987305 4.77041016 20.31987305 6.21044922 20.31494141 C7.19529297 20.3065625 8.18013672 20.29818359 9.19482422 20.28955078 C10.18740234 20.28503906 11.17998047 20.28052734 12.20263672 20.27587891 C14.65842582 20.26407223 17.11409526 20.24760478 19.56982422 20.22705078 C19.59666409 17.24782485 19.61658459 14.26883783 19.63232422 11.28955078 C19.64070313 10.43941406 19.64908203 9.58927734 19.65771484 8.71337891 C19.6609375 7.90449219 19.66416016 7.09560547 19.66748047 6.26220703 C19.67271729 5.51334229 19.6779541 4.76447754 19.68334961 3.99291992 C19.76324174 2.20037339 19.76324174 2.20037339 18.56982422 1.22705078 C15.26465488 0.97669104 11.94586381 1.04183126 8.63232422 1.03955078 C7.6996875 1.02730469 6.76705078 1.01505859 5.80615234 1.00244141 C4.91476562 1.00050781 4.02337891 0.99857422 3.10498047 0.99658203 C1.8734021 0.9904187 1.8734021 0.9904187 0.61694336 0.98413086 C-1.65534802 1.03965198 -1.65534802 1.03965198 -3.43017578 3.22705078 Z " fill="#F18D93" transform="translate(263.43017578125,293.77294921875)"/>
<path d="M0 0 C1.02802734 -0.01224609 2.05605469 -0.02449219 3.11523438 -0.03710938 C4.58766602 -0.04000977 4.58766602 -0.04000977 6.08984375 -0.04296875 C6.99468506 -0.04707764 7.89952637 -0.05118652 8.83178711 -0.05541992 C11.0625 0.1875 11.0625 0.1875 13.0625 2.1875 C13.30541992 4.05102539 13.30541992 4.05102539 13.29296875 6.28515625 C13.29103516 7.08630859 13.28910156 7.88746094 13.28710938 8.71289062 C13.26874023 9.96875977 13.26874023 9.96875977 13.25 11.25 C13.24935547 12.09111328 13.24871094 12.93222656 13.24804688 13.79882812 C13.20273184 20.04726816 13.20273184 20.04726816 12.0625 21.1875 C10.42777118 21.27450342 8.78935945 21.29451063 7.15234375 21.28515625 C6.16298828 21.28193359 5.17363281 21.27871094 4.15429688 21.27539062 C3.11337891 21.26701172 2.07246094 21.25863281 1 21.25 C-0.04478516 21.24548828 -1.08957031 21.24097656 -2.16601562 21.23632812 C-4.7565666 21.22449913 -7.34700559 21.20801689 -9.9375 21.1875 C-9.9375 20.8575 -9.9375 20.5275 -9.9375 20.1875 C0.4575 19.6925 0.4575 19.6925 11.0625 19.1875 C11.0625 13.9075 11.0625 8.6275 11.0625 3.1875 C4.1325 3.1875 -2.7975 3.1875 -9.9375 3.1875 C-10.2675 8.4675 -10.5975 13.7475 -10.9375 19.1875 C-11.2675 19.1875 -11.5975 19.1875 -11.9375 19.1875 C-11.96433987 16.20827407 -11.98426037 13.22928705 -12 10.25 C-12.00837891 9.39986328 -12.01675781 8.54972656 -12.02539062 7.67382812 C-12.02861328 6.86494141 -12.03183594 6.05605469 -12.03515625 5.22265625 C-12.04039307 4.4737915 -12.04562988 3.72492676 -12.05102539 2.95336914 C-11.73622098 -1.94336276 -3.62846878 0.00226638 0 0 Z " fill="#F29FA4" transform="translate(348.9375,348.8125)"/>
<path d="M0 0 C1.12019531 -0.00128906 2.24039062 -0.00257813 3.39453125 -0.00390625 C4.57402344 -0.00003906 5.75351562 0.00382812 6.96875 0.0078125 C8.73798828 0.00201172 8.73798828 0.00201172 10.54296875 -0.00390625 C12.22326172 -0.00197266 12.22326172 -0.00197266 13.9375 0 C14.97326172 0.00112793 16.00902344 0.00225586 17.07617188 0.00341797 C19.46875 0.1328125 19.46875 0.1328125 20.46875 1.1328125 C20.55601223 2.91352496 20.57574041 4.6976439 20.56640625 6.48046875 C20.56318359 7.56005859 20.55996094 8.63964844 20.55664062 9.75195312 C20.54826172 10.88826172 20.53988281 12.02457031 20.53125 13.1953125 C20.52673828 14.33548828 20.52222656 15.47566406 20.51757812 16.65039062 C20.50574747 19.47791601 20.4892641 22.3053389 20.46875 25.1328125 C20.13875 25.1328125 19.80875 25.1328125 19.46875 25.1328125 C19.13875 17.8728125 18.80875 10.6128125 18.46875 3.1328125 C10.87875 3.1328125 3.28875 3.1328125 -4.53125 3.1328125 C-4.86125 10.3928125 -5.19125 17.6528125 -5.53125 25.1328125 C-5.86125 25.1328125 -6.19125 25.1328125 -6.53125 25.1328125 C-6.56011984 21.15366091 -6.57800406 17.17453597 -6.59375 13.1953125 C-6.60212891 12.05900391 -6.61050781 10.92269531 -6.61914062 9.75195312 C-6.62236328 8.67236328 -6.62558594 7.59277344 -6.62890625 6.48046875 C-6.63414307 5.48023682 -6.63937988 4.48000488 -6.64477539 3.44946289 C-6.42686837 -0.99724612 -3.86057117 0.00420411 0 0 Z " fill="#EE6B75" transform="translate(420.53125,402.8671875)"/>
<path d="M0 0 C7.92 0 15.84 0 24 0 C24 0.33 24 0.66 24 1 C13.605 1.495 13.605 1.495 3 2 C3 9.59 3 17.18 3 25 C9.93 25 16.86 25 24 25 C24 25.33 24 25.66 24 26 C16.08 26 8.16 26 0 26 C0 17.42 0 8.84 0 0 Z " fill="#EF7981" transform="translate(336,376)"/>
<path d="M0 0 C1.40958984 -0.00193359 1.40958984 -0.00193359 2.84765625 -0.00390625 C3.83636719 -0.00003906 4.82507813 0.00382812 5.84375 0.0078125 C7.32681641 0.00201172 7.32681641 0.00201172 8.83984375 -0.00390625 C9.77957031 -0.00261719 10.71929687 -0.00132812 11.6875 0 C12.55568359 0.00112793 13.42386719 0.00225586 14.31835938 0.00341797 C16.34375 0.1328125 16.34375 0.1328125 17.34375 1.1328125 C17.43088831 2.84053608 17.45075007 4.55179899 17.44140625 6.26171875 C17.43818359 7.29619141 17.43496094 8.33066406 17.43164062 9.39648438 C17.42326172 10.48509766 17.41488281 11.57371094 17.40625 12.6953125 C17.40173828 13.78779297 17.39722656 14.88027344 17.39257812 16.00585938 C17.38074826 18.71489745 17.36426543 21.42382849 17.34375 24.1328125 C17.01375 24.1328125 16.68375 24.1328125 16.34375 24.1328125 C16.31869385 23.50189697 16.2936377 22.87098145 16.26782227 22.22094727 C16.15220863 19.37884425 16.02932684 16.53710167 15.90625 13.6953125 C15.86693359 12.70208984 15.82761719 11.70886719 15.78710938 10.68554688 C15.74521484 9.74130859 15.70332031 8.79707031 15.66015625 7.82421875 C15.62349854 6.94967041 15.58684082 6.07512207 15.54907227 5.17407227 C15.56193934 3.1400723 15.56193934 3.1400723 14.34375 2.1328125 C13.00107587 2.04649376 11.65400678 2.02574777 10.30859375 2.03515625 C9.49970703 2.03837891 8.69082031 2.04160156 7.85742188 2.04492188 C7.00728516 2.05330078 6.15714844 2.06167969 5.28125 2.0703125 C4.42724609 2.07482422 3.57324219 2.07933594 2.69335938 2.08398438 C0.57679337 2.09580877 -1.53973685 2.11374481 -3.65625 2.1328125 C-3.68512512 5.77862937 -3.70300585 9.42441713 -3.71875 13.0703125 C-3.72712891 14.11123047 -3.73550781 15.15214844 -3.74414062 16.22460938 C-3.74736328 17.21396484 -3.75058594 18.20332031 -3.75390625 19.22265625 C-3.75914307 20.13909912 -3.76437988 21.05554199 -3.76977539 21.99975586 C-3.89546211 24.11644273 -3.89546211 24.11644273 -2.65625 25.1328125 C-1.24054877 25.21932861 0.179345 25.23986154 1.59765625 25.23046875 C2.45166016 25.22724609 3.30566406 25.22402344 4.18554688 25.22070312 C5.08337891 25.21232422 5.98121094 25.20394531 6.90625 25.1953125 C8.25879883 25.18854492 8.25879883 25.18854492 9.63867188 25.18164062 C11.87376314 25.16981475 14.10872437 25.1533347 16.34375 25.1328125 C16.34375 25.7928125 16.34375 26.4528125 16.34375 27.1328125 C12.86460059 27.16169064 9.38548169 27.17956937 5.90625 27.1953125 C4.41641602 27.20788086 4.41641602 27.20788086 2.89648438 27.22070312 C1.95224609 27.22392578 1.00800781 27.22714844 0.03515625 27.23046875 C-1.27666626 27.23832397 -1.27666626 27.23832397 -2.61499023 27.24633789 C-4.65625 27.1328125 -4.65625 27.1328125 -5.65625 26.1328125 C-5.75584621 24.29122227 -5.78705411 22.44584283 -5.7890625 20.6015625 C-5.79035156 19.48136719 -5.79164063 18.36117188 -5.79296875 17.20703125 C-5.78910156 16.02753906 -5.78523438 14.84804688 -5.78125 13.6328125 C-5.78511719 12.45332031 -5.78898437 11.27382813 -5.79296875 10.05859375 C-5.79167969 8.93839844 -5.79039062 7.81820313 -5.7890625 6.6640625 C-5.78793457 5.62830078 -5.78680664 4.59253906 -5.78564453 3.52539062 C-5.55831882 -0.67799037 -3.73857916 0.0048571 0 0 Z " fill="#ED5260" transform="translate(382.65625,320.8671875)"/>
<path d="M0 0 C3.22815141 0.51356954 4.80772413 1.58531368 6.80859375 4.17578125 C8.90559857 9.21381359 8.24513361 15.0971304 7.75 20.4375 C6.75 21.4375 6.75 21.4375 3.80859375 21.53515625 C2.61363281 21.52355469 1.41867187 21.51195312 0.1875 21.5 C-1.60880859 21.48646484 -1.60880859 21.48646484 -3.44140625 21.47265625 C-4.36824219 21.46105469 -5.29507812 21.44945312 -6.25 21.4375 C-8.30058812 17.33632376 -7.73033456 12.95492053 -6.390625 8.72265625 C-3.18157383 0.61863936 -3.18157383 0.61863936 0 0 Z M-2.25 2.4375 C-3.77463375 3.96213375 -3.55140187 5.50780204 -3.75 7.625 C-4.02833181 10.43974268 -4.37681337 13.14765485 -4.875 15.9375 C-4.99875 16.7625 -5.1225 17.5875 -5.25 18.4375 C-4.19021067 19.72362676 -4.19021067 19.72362676 -1.74609375 19.53515625 C-0.73675781 19.52355469 0.27257812 19.51195312 1.3125 19.5 C2.32441406 19.49097656 3.33632813 19.48195313 4.37890625 19.47265625 C5.16136719 19.46105469 5.94382812 19.44945312 6.75 19.4375 C7.51538122 11.37315278 7.51538122 11.37315278 4.5 4.1875 C1.73082588 2.07958301 1.73082588 2.07958301 -2.25 2.4375 Z " fill="#F37F33" transform="translate(427.25,293.5625)"/>
<path d="M0 0 C1.12341797 -0.01224609 2.24683594 -0.02449219 3.40429688 -0.03710938 C5.01208008 -0.04000977 5.01208008 -0.04000977 6.65234375 -0.04296875 C8.13528931 -0.04913208 8.13528931 -0.04913208 9.64819336 -0.05541992 C12.0625 0.1875 12.0625 0.1875 14.0625 2.1875 C14.28955078 4.25048828 14.28955078 4.25048828 14.2578125 6.7578125 C14.25136719 7.65371094 14.24492187 8.54960937 14.23828125 9.47265625 C14.22152344 10.40980469 14.20476562 11.34695313 14.1875 12.3125 C14.17847656 13.25738281 14.16945313 14.20226562 14.16015625 15.17578125 C14.13654522 17.51327292 14.10361516 19.85026123 14.0625 22.1875 C11.46696166 23.48526917 9.55544473 23.31700035 6.65234375 23.3203125 C5.04456055 23.32224609 5.04456055 23.32224609 3.40429688 23.32421875 C2.28087891 23.32035156 1.15746094 23.31648438 0 23.3125 C-1.69092773 23.31830078 -1.69092773 23.31830078 -3.41601562 23.32421875 C-5.02186523 23.32228516 -5.02186523 23.32228516 -6.66015625 23.3203125 C-7.64765869 23.31918457 -8.63516113 23.31805664 -9.65258789 23.31689453 C-11.9375 23.1875 -11.9375 23.1875 -12.9375 22.1875 C-13.03649523 20.63794441 -13.06829524 19.08396327 -13.0703125 17.53125 C-13.07160156 16.59152344 -13.07289063 15.65179688 -13.07421875 14.68359375 C-13.07035156 13.69488281 -13.06648438 12.70617187 -13.0625 11.6875 C-13.06636719 10.69878906 -13.07023437 9.71007812 -13.07421875 8.69140625 C-13.07292969 7.75167969 -13.07164062 6.81195313 -13.0703125 5.84375 C-13.06918457 4.97556641 -13.06805664 4.10738281 -13.06689453 3.21289062 C-12.72372416 -2.15869692 -4.031389 0.00230497 0 0 Z M-11.9375 2.1875 C-12.06417764 5.17768161 -12.12270838 8.13444108 -12.125 11.125 C-12.13724609 11.96224609 -12.14949219 12.79949219 -12.16210938 13.66210938 C-12.16404297 14.46326172 -12.16597656 15.26441406 -12.16796875 16.08984375 C-12.17207764 16.82710693 -12.17618652 17.56437012 -12.18041992 18.32397461 C-12.09804222 20.43347306 -12.09804222 20.43347306 -9.9375 22.1875 C-7.62645725 22.4815915 -7.62645725 22.4815915 -4.96484375 22.41796875 C-3.49241211 22.41506836 -3.49241211 22.41506836 -1.99023438 22.41210938 C-0.96220703 22.39986328 0.06582031 22.38761719 1.125 22.375 C2.15689453 22.37435547 3.18878906 22.37371094 4.25195312 22.37304688 C9.00290246 22.79158311 9.00290246 22.79158311 13.0625 21.1875 C13.18917764 18.19731839 13.24770838 15.24055892 13.25 12.25 C13.26836914 10.99413086 13.26836914 10.99413086 13.28710938 9.71289062 C13.28904297 8.91173828 13.29097656 8.11058594 13.29296875 7.28515625 C13.29707764 6.54789307 13.30118652 5.81062988 13.30541992 5.05102539 C13.22304222 2.94152694 13.22304222 2.94152694 11.0625 1.1875 C8.75145725 0.8934085 8.75145725 0.8934085 6.08984375 0.95703125 C4.61741211 0.95993164 4.61741211 0.95993164 3.11523438 0.96289062 C2.08720703 0.97513672 1.05917969 0.98738281 0 1 C-1.03189453 1.00064453 -2.06378906 1.00128906 -3.12695312 1.00195312 C-7.87790246 0.58341689 -7.87790246 0.58341689 -11.9375 2.1875 Z " fill="#ED5360" transform="translate(348.9375,347.8125)"/>
<path d="M0 0 C0.99 0.495 0.99 0.495 2 1 C3.71585472 1.12912497 5.43610034 1.20232366 7.15625 1.24609375 C8.17847656 1.27896484 9.20070313 1.31183594 10.25390625 1.34570312 C12.41786189 1.40689802 14.58193142 1.46419025 16.74609375 1.51757812 C17.76832031 1.55173828 18.79054688 1.58589844 19.84375 1.62109375 C20.78412109 1.6461499 21.72449219 1.67120605 22.69335938 1.69702148 C25 2 25 2 27 4 C27.22705078 6.15478516 27.22705078 6.15478516 27.1953125 8.7890625 C27.18886719 9.73007812 27.18242187 10.67109375 27.17578125 11.640625 C27.15902344 12.62546875 27.14226562 13.6103125 27.125 14.625 C27.11597656 15.61757813 27.10695313 16.61015625 27.09765625 17.6328125 C27.07404116 20.08878134 27.04110799 22.54427168 27 25 C26.34 24.67 25.68 24.34 25 24 C25 18.06 25 12.12 25 6 C17.08 5.67 9.16 5.34 1 5 C0.67 3.35 0.34 1.7 0 0 Z " fill="#ED4D5D" transform="translate(414,345)"/>
<path d="M0 0 C5.875 3.75 5.875 3.75 7 6 C7.99 6.33 8.98 6.66 10 7 C10.48785997 14.43986448 10.48785997 14.43986448 8.3125 16.9375 C2.71256413 19.51044351 -2.95133065 19.1057049 -9 19 C-9.33 18.34 -9.66 17.68 -10 17 C-7.98177083 16.54427083 -5.96354167 16.08854167 -3.9453125 15.6328125 C-1.79280036 15.09525572 -1.79280036 15.09525572 0 13 C2.68839385 12.73008094 5.29141936 12.91262643 8 13 C8 11.35 8 9.7 8 8 C7.4225 7.7525 6.845 7.505 6.25 7.25 C3.67060021 5.81700012 1.93878408 4.21575324 0 2 C0 1.34 0 0.68 0 0 Z " fill="#EE4A39" transform="translate(352,324)"/>
<path d="M0 0 C3.96 0 7.92 0 12 0 C12.66 1.32 13.32 2.64 14 4 C14.99 4.66 15.98 5.32 17 6 C17.22107787 8.7885289 17.28107535 11.34653181 17.1875 14.125 C17.16719727 15.25615234 17.16719727 15.25615234 17.14648438 16.41015625 C17.11109985 18.27374127 17.05729167 20.13695978 17 22 C14.66836164 23.16581918 13.27846518 23.12905609 10.68359375 23.1328125 C9.41418945 23.13474609 9.41418945 23.13474609 8.11914062 23.13671875 C7.23419922 23.13285156 6.34925781 23.12898438 5.4375 23.125 C4.54869141 23.12886719 3.65988281 23.13273437 2.74414062 23.13671875 C1.89916016 23.13542969 1.05417969 23.13414062 0.18359375 23.1328125 C-0.98345093 23.13112061 -0.98345093 23.13112061 -2.17407227 23.12939453 C-4 23 -4 23 -5 22 C-5.07325168 19.13732433 -5.09238205 16.299281 -5.0625 13.4375 C-5.05798828 12.63119141 -5.05347656 11.82488281 -5.04882812 10.99414062 C-5.03700518 8.99606244 -5.01906914 6.99802217 -5 5 C-4.01 4.67 -3.02 4.34 -2 4 C-1.34 2.68 -0.68 1.36 0 0 Z M1 1 C0.54625 1.969375 0.0925 2.93875 -0.375 3.9375 C-2 7 -2 7 -4 8 C-4.05389087 9.95803507 -4.09274217 11.91648909 -4.125 13.875 C-4.14820313 14.96554687 -4.17140625 16.05609375 -4.1953125 17.1796875 C-4.30060534 20.1371051 -4.30060534 20.1371051 -2 22 C0.70631694 22.1720611 3.2971394 22.23239017 6 22.1875 C6.73734375 22.18685547 7.4746875 22.18621094 8.234375 22.18554688 C12.2479229 22.22791704 12.2479229 22.22791704 16 21 C16.0810206 18.89646505 16.13919907 16.79204048 16.1875 14.6875 C16.22230469 13.51574219 16.25710938 12.34398437 16.29296875 11.13671875 C16.30205145 8.04379647 16.30205145 8.04379647 14.61328125 6.33203125 C14.08089844 5.89246094 13.54851562 5.45289063 13 5 C12.34 3.68 11.68 2.36 11 1 C7.7 1 4.4 1 1 1 Z " fill="#ED3D39" transform="translate(268,348)"/>
<path d="M0 0 C6.0546875 -0.1953125 6.0546875 -0.1953125 8 0 C10.76591336 2.76591336 10.4737411 5.18462299 11 9 C11.350625 9.70125 11.70125 10.4025 12.0625 11.125 C13 13 13 13 13 18 C7.39 18 1.78 18 -4 18 C-4.25 9.375 -4.25 9.375 -2 6 C-1.29835358 4.01200182 -0.62627128 2.01301483 0 0 Z M0 1 C-0.33 4.96 -0.66 8.92 -1 13 C-1.66 13 -2.32 13 -3 13 C-3 14.32 -3 15.64 -3 17 C1.62 17 6.24 17 11 17 C11 15.68 11 14.36 11 13 C10.01 13 9.02 13 8 13 C8.01160156 12.21753906 8.02320313 11.43507813 8.03515625 10.62890625 C8.04417969 9.61699219 8.05320312 8.60507812 8.0625 7.5625 C8.07410156 6.55316406 8.08570313 5.54382813 8.09765625 4.50390625 C8.28612676 2.05978933 8.28612676 2.05978933 7 1 C4.66702567 0.95907063 2.33294775 0.95758277 0 1 Z " fill="#F8A02D" transform="translate(270,350)"/>
<path d="M0 0 C1.32 0 2.64 0 4 0 C6.05312708 3.07969063 6.24997754 3.71968705 6.23046875 7.1953125 C6.22853516 7.99324219 6.22660156 8.79117187 6.22460938 9.61328125 C6.20624023 10.85658203 6.20624023 10.85658203 6.1875 12.125 C6.18685547 12.96160156 6.18621094 13.79820312 6.18554688 14.66015625 C6.14033163 20.85966837 6.14033163 20.85966837 5 22 C2.30345146 22.07319621 -0.36691458 22.09242537 -3.0625 22.0625 C-3.82111328 22.05798828 -4.57972656 22.05347656 -5.36132812 22.04882812 C-7.24091871 22.0370068 -9.12046899 22.01907078 -11 22 C-11.02699725 19.72923158 -11.04639453 17.45837179 -11.0625 15.1875 C-11.07990234 13.29064453 -11.07990234 13.29064453 -11.09765625 11.35546875 C-11 8 -11 8 -10 5 C-9.01 4.67 -8.02 4.34 -7 4 C-7.33 4.94875 -7.66 5.8975 -8 6.875 C-9.37602752 11.59419299 -9.13386339 16.11398625 -9 21 C-2.565 20.505 -2.565 20.505 4 20 C4.10823773 17.75106046 4.18569645 15.50062425 4.25 13.25 C4.29640625 11.99703125 4.3428125 10.7440625 4.390625 9.453125 C3.93632884 5.43714695 3.00748069 4.53386168 0 2 C0 1.34 0 0.68 0 0 Z " fill="#EE4B38" transform="translate(430,294)"/>
<path d="M0 0 C0.95310059 0.01047363 1.90620117 0.02094727 2.88818359 0.03173828 C4.43505859 0.04140625 4.43505859 0.04140625 6.01318359 0.05126953 C7.63353516 0.07640625 7.63353516 0.07640625 9.28662109 0.10205078 C10.37458984 0.11107422 11.46255859 0.12009766 12.58349609 0.12939453 C15.27642261 0.15301669 17.96891365 0.18595522 20.66162109 0.22705078 C20.66162109 0.55705078 20.66162109 0.88705078 20.66162109 1.22705078 C19.66980835 1.26463501 19.66980835 1.26463501 18.65795898 1.30297852 C15.67979804 1.41858181 12.7019819 1.54146832 9.72412109 1.66455078 C8.16274414 1.72352539 8.16274414 1.72352539 6.56982422 1.78369141 C5.08579102 1.8465332 5.08579102 1.8465332 3.57177734 1.91064453 C2.65533447 1.94730225 1.7388916 1.98395996 0.79467773 2.02172852 C-1.32045171 1.99708942 -1.32045171 1.99708942 -2.33837891 3.22705078 C-2.43824865 6.07040126 -2.47715772 8.88402241 -2.46337891 11.72705078 C-2.46724609 12.52498047 -2.47111328 13.32291016 -2.47509766 14.14501953 C-2.847375 17.99544398 -2.847375 17.99544398 -1.33837891 21.22705078 C0.36725888 21.38445684 2.07889354 21.4779847 3.79052734 21.54345703 C4.825 21.58535156 5.85947266 21.62724609 6.92529297 21.67041016 C8.01390625 21.70972656 9.10251953 21.74904297 10.22412109 21.78955078 C11.31660156 21.83273437 12.40908203 21.87591797 13.53466797 21.92041016 C16.24351673 22.02687146 18.95246102 22.12888595 21.66162109 22.22705078 C21.66162109 22.55705078 21.66162109 22.88705078 21.66162109 23.22705078 C17.51580223 23.25591829 13.37000893 23.27380406 9.22412109 23.28955078 C7.44811523 23.30211914 7.44811523 23.30211914 5.63623047 23.31494141 C4.51152344 23.31816406 3.38681641 23.32138672 2.22802734 23.32470703 C0.66483765 23.33256226 0.66483765 23.33256226 -0.92993164 23.34057617 C-3.33837891 23.22705078 -3.33837891 23.22705078 -4.33837891 22.22705078 C-4.58873865 18.92188144 -4.52359842 15.60309037 -4.52587891 12.28955078 C-4.538125 11.35691406 -4.55037109 10.42427734 -4.56298828 9.46337891 C-4.56492187 8.57199219 -4.56685547 7.68060547 -4.56884766 6.76220703 C-4.57501099 5.53062866 -4.57501099 5.53062866 -4.58129883 4.27416992 C-4.20880115 1.13508149 -3.08687929 0.29972831 0 0 Z " fill="#ED4B5A" transform="translate(262.33837890625,292.77294921875)"/>
<path d="M0 0 C3.96 0 7.92 0 12 0 C12.66 1.65 13.32 3.3 14 5 C14.99 5.33 15.98 5.66 17 6 C17.02685095 8.47923801 17.04676547 10.9581884 17.0625 13.4375 C17.07087891 14.14455078 17.07925781 14.85160156 17.08789062 15.58007812 C17.09653588 17.38693559 17.05220011 19.19387603 17 21 C16 22 16 22 14.14233398 22.11352539 C13.35157471 22.10828857 12.56081543 22.10305176 11.74609375 22.09765625 C10.89208984 22.09443359 10.03808594 22.09121094 9.15820312 22.08789062 C8.26037109 22.07951172 7.36253906 22.07113281 6.4375 22.0625 C5.53580078 22.05798828 4.63410156 22.05347656 3.70507812 22.04882812 C1.46998686 22.03700225 -0.76497437 22.0205222 -3 22 C-3.33 21.34 -3.66 20.68 -4 20 C2.27 20 8.54 20 15 20 C15.69122842 10.95434953 15.69122842 10.95434953 11.703125 3.18359375 C8.90568083 1.23949837 6.30806767 1.33818909 2.98828125 1.4609375 C0.61046578 1.87156692 0.61046578 1.87156692 -1 5 C-0.67 3.35 -0.34 1.7 0 0 Z " fill="#EE4B39" transform="translate(268,239)"/>
<path d="M0 0 C0.33 1.32 0.66 2.64 1 4 C0.01 3.34 -0.98 2.68 -2 2 C-3.94667205 1.57478937 -3.94667205 1.57478937 -6 1.5625 C-7.0209375 1.50255859 -7.0209375 1.50255859 -8.0625 1.44140625 C-10.22892233 1.86613204 -10.22892233 1.86613204 -11.734375 4.13671875 C-13.18419832 7.41672027 -13.33792529 9.68023319 -13.25 13.25 C-13.23453125 14.30703125 -13.2190625 15.3640625 -13.203125 16.453125 C-13.28236635 18.933851 -13.28236635 18.933851 -12 20 C-9.98405418 20.23427778 -7.961526 20.41336124 -5.9375 20.5625 C-4.83277344 20.64628906 -3.72804688 20.73007812 -2.58984375 20.81640625 C-1.73519531 20.87699219 -0.88054687 20.93757813 0 21 C0 21.33 0 21.66 0 22 C-4.95 22 -9.9 22 -15 22 C-17.47755464 17.04489072 -16.21625285 9.16907461 -15 4 C-11.78079106 -1.70677948 -5.76103346 -0.35758139 0 0 Z " fill="#ED3939" transform="translate(434,376)"/>
<path d="M0 0 C2.65664779 0.15180845 4.45217862 0.52011425 6.48046875 2.296875 C7.875 3.875 7.875 3.875 10 7 C9.67 7.99 9.34 8.98 9 10 C8.34 9.67 7.68 9.34 7 9 C6.65657551 7.66923011 6.32380126 6.33568021 6 5 C3.8614515 2.8614515 2.86724686 2.57344937 0 2 C-0.12375 3.093125 -0.2475 4.18625 -0.375 5.3125 C-1 9 -1 9 -3 12 C-1.02 11.67 0.96 11.34 3 11 C1.75 12.5 1.75 12.5 0 14 C-1.32 14 -2.64 14 -4 14 C-3.66009167 8.62007164 -3.31442207 4.46726453 0 0 Z " fill="#F9A52D" transform="translate(348,327)"/>
<path d="M0 0 C4.75 0.875 4.75 0.875 7 2 C6.67 2.66 6.34 3.32 6 4 C4.02 3.34 2.04 2.68 0 2 C0.061875 3.093125 0.12375 4.18625 0.1875 5.3125 C0 9 0 9 -1.4375 10.6875 C-1.953125 11.120625 -2.46875 11.55375 -3 12 C-3.33 13.32 -3.66 14.64 -4 16 C-0.37 16 3.26 16 7 16 C7 16.33 7 16.66 7 17 C3.04 17 -0.92 17 -5 17 C-5 11.5148086 -4.75795813 9.75381417 -2.5 5.125 C-2.0359375 4.15820312 -1.571875 3.19140625 -1.09375 2.1953125 C-0.7328125 1.47085937 -0.371875 0.74640625 0 0 Z " fill="#F8A22E" transform="translate(426,379)"/>
<path d="M0 0 C3.40667322 0.44824648 5.07914607 1.05276405 8 3 C7.67 3.66 7.34 4.32 7 5 C5.35 4.67 3.7 4.34 2 4 C1.731875 5.093125 1.46375 6.18625 1.1875 7.3125 C0.069237 10.7850009 -0.43744207 11.71827034 -3 14 C-2.69249629 11.85344499 -2.3788634 9.70776715 -2.0625 7.5625 C-1.88847656 6.36753906 -1.71445312 5.17257812 -1.53515625 3.94140625 C-1 1 -1 1 0 0 Z " fill="#F9A42D" transform="translate(425,296)"/>
<path d="M0 0 C0.639375 0.804375 1.27875 1.60875 1.9375 2.4375 C3.40603502 4.2750504 3.40603502 4.2750504 5 6 C5.09851171 7.83115883 5.12972629 9.66619933 5.125 11.5 C5.12886719 13.00046875 5.12886719 13.00046875 5.1328125 14.53125 C5 17 5 17 4 18 C1.13732433 18.07325168 -1.700719 18.09238205 -4.5625 18.0625 C-5.36880859 18.05798828 -6.17511719 18.05347656 -7.00585938 18.04882812 C-9.00393756 18.03700518 -11.00197783 18.01906914 -13 18 C-13 17.67 -13 17.34 -13 17 C-7.72 16.67 -2.44 16.34 3 16 C2.54334142 11.43341421 2.17334433 8.05690942 0 4 C0 2.68 0 1.36 0 0 Z " fill="#F27635" transform="translate(279,242)"/>
<path d="M0 0 C2.97 0 5.94 0 9 0 C9.33 0.66 9.66 1.32 10 2 C7.03 2 4.06 2 1 2 C0.896875 3.0725 0.79375 4.145 0.6875 5.25 C0 9 0 9 -1.5625 11.0625 C-3.54270806 13.73147608 -3.22057267 15.76493417 -3 19 C-3.66 19 -4.32 19 -5 19 C-5.8089913 11.8808766 -2.93279777 6.37883514 0 0 Z " fill="#F37F34" transform="translate(269,240)"/>
<path d="M0 0 C0 0.66 0 1.32 0 2 C-0.62390625 2.20367187 -1.2478125 2.40734375 -1.890625 2.6171875 C-4.94145325 4.61717491 -5.00523846 6.62462074 -5.75 10.125 C-5.99234375 11.22070312 -6.2346875 12.31640625 -6.484375 13.4453125 C-6.65453125 14.28835938 -6.8246875 15.13140625 -7 16 C-7.66 16 -8.32 16 -9 16 C-8.8090079 6.08577376 -8.8090079 6.08577376 -5.625 1.8125 C-3 0 -3 0 0 0 Z " fill="#F48932" transform="translate(351,325)"/>
<path d="M0 0 C1.984375 1.08203125 1.984375 1.08203125 4 3 C4.390625 6.13671875 4.390625 6.13671875 4.25 9.6875 C4.21390625 10.86699219 4.1778125 12.04648437 4.140625 13.26171875 C4.09421875 14.16535156 4.0478125 15.06898438 4 16 C3.34 15.67 2.68 15.34 2 15 C1.62109375 13.1875 1.62109375 13.1875 1.4375 11 C1.37334592 8.21067942 1.37334592 8.21067942 0 6 C-0.04080783 4.00041636 -0.04254356 1.99954746 0 0 Z " fill="#F16E35" transform="translate(280,353)"/>
<path d="M0 0 C0.5775 0.2475 1.155 0.495 1.75 0.75 C0.6053125 1.2140625 0.6053125 1.2140625 -0.5625 1.6875 C-5.24184327 5.2786239 -5.85895821 10.72369252 -6.9375 16.3125 C-7.040625 17.116875 -7.14375 17.92125 -7.25 18.75 C-7.58 18.75 -7.91 18.75 -8.25 18.75 C-8.51294225 12.17644385 -8.55996113 6.75294947 -4.375 1.3125 C-2.25 -0.25 -2.25 -0.25 0 0 Z " fill="#EF5638" transform="translate(349.25,322.25)"/>
<path d="M0 0 C1.32 0.33 2.64 0.66 4 1 C3.01 1.33 2.02 1.66 1 2 C-0.21489235 4.15001786 -0.21489235 4.15001786 -1.125 6.75 C-1.45757812 7.61109375 -1.79015625 8.4721875 -2.1328125 9.359375 C-2.96617277 11.89699457 -3.53680766 14.37209246 -4 17 C-4.33 17 -4.66 17 -5 17 C-5.64317031 9.92512658 -3.82735898 5.90506815 0 0 Z " fill="#F48333" transform="translate(425,378)"/>
<path d="M0 0 C5.49404762 10.56547619 5.49404762 10.56547619 5 16 C4.896875 15.360625 4.79375 14.72125 4.6875 14.0625 C4.460625 13.381875 4.23375 12.70125 4 12 C3.01 11.67 2.02 11.34 1 11 C-0.28317892 7.15046324 -0.06643637 4.05261865 0 0 Z " fill="#F79E2F" transform="translate(278,242)"/>
<path d="M0 0 C0.99 0 1.98 0 3 0 C2.01 4.95 1.02 9.9 0 15 C-0.33 15 -0.66 15 -1 15 C-1.02685412 12.68756208 -1.04632841 10.3750373 -1.0625 8.0625 C-1.07410156 6.77472656 -1.08570313 5.48695313 -1.09765625 4.16015625 C-1 1 -1 1 0 0 Z " fill="#EE4939" transform="translate(264,244)"/>
<path d="M0 0 C0.33 0 0.66 0 1 0 C1.144375 1.134375 1.28875 2.26875 1.4375 3.4375 C1.61171478 6.80777201 1.61171478 6.80777201 3 8 C5.01594582 8.23427778 7.038474 8.41336124 9.0625 8.5625 C10.16722656 8.64628906 11.27195312 8.73007812 12.41015625 8.81640625 C13.69212891 8.90728516 13.69212891 8.90728516 15 9 C15 9.33 15 9.66 15 10 C10.05 10 5.1 10 0 10 C0 6.7 0 3.4 0 0 Z " fill="#EF5338" transform="translate(419,388)"/>
<path d="M0 0 C-1.375 1.5 -1.375 1.5 -3 3 C-3.66 3 -4.32 3 -5 3 C-5 3.66 -5 4.32 -5 5 C-7.64 5 -10.28 5 -13 5 C-12.4225 4.731875 -11.845 4.46375 -11.25 4.1875 C-8.95215329 3.07576415 -8.95215329 3.07576415 -7.0625 1.375 C-4.53440331 -0.31039779 -2.97832406 -0.24819367 0 0 Z " fill="#F38133" transform="translate(357,337)"/>
<path d="M0 0 C0.33 0 0.66 0 1 0 C1.36010591 7.32215357 1.36010591 7.32215357 -0.0625 10 C-3.02087678 11.52690415 -5.73716599 11.18468872 -9 11 C-9 10.67 -9 10.34 -9 10 C-6 9 -3 8 0 7 C0 4.69 0 2.38 0 0 Z " fill="#EC2C3A" transform="translate(362,332)"/>
<path d="M0 0 C0.33 0 0.66 0 1 0 C1.25 2.8125 1.25 2.8125 1 6 C-1.2206051 8.467339 -2.43569203 8.96152446 -5.75 9.1875 C-6.4925 9.125625 -7.235 9.06375 -8 9 C-3.375 5 -3.375 5 0 5 C0 3.35 0 1.7 0 0 Z " fill="#F06537" transform="translate(360,332)"/>
</svg>
